<svg width="40" height="38" viewBox="0 0 40 38" fill="none" xmlns="http://www.w3.org/2000/svg">
<g filter="url(#filter0_i_5453_37392)">
<path fill-rule="evenodd" clip-rule="evenodd" d="M40 23.3858L40 0.000990073L-1.66099e-06 0.000991821L-6.38806e-07 23.3858L2.47403 23.3858L2.47403 32.1529L12.5707 32.1529L12.5707 38L27.4281 38L27.4281 32.1529L37.5214 32.1529L37.5214 23.3858L40 23.3858Z" fill="#DAD9DD"/>
</g>
<path fill-rule="evenodd" clip-rule="evenodd" d="M5.47403 20.3858L5.47403 29.1529L15.5707 29.1529L15.5707 35L24.4281 35L24.4281 29.1529L34.5214 29.1529L34.5214 20.3858L37 20.3858L37 3.00099L3 3.00099L3 20.3858L5.47403 20.3858ZM-1.66099e-06 0.000991821L40 0.000990073L40 23.3858L37.5214 23.3858L37.5214 32.1529L27.4281 32.1529L27.4281 38L12.5707 38L12.5707 32.1529L2.47403 32.1529L2.47403 23.3858L-6.38806e-07 23.3858L-1.66099e-06 0.000991821Z" fill="#C4C6D0"/>
<defs>
<filter id="filter0_i_5453_37392" x="0" y="0" width="44" height="42" filterUnits="userSpaceOnUse" color-interpolation-filters="sRGB">
<feFlood flood-opacity="0" result="BackgroundImageFix"/>
<feBlend mode="normal" in="SourceGraphic" in2="BackgroundImageFix" result="shape"/>
<feColorMatrix in="SourceAlpha" type="matrix" values="0 0 0 0 0 0 0 0 0 0 0 0 0 0 0 0 0 0 127 0" result="hardAlpha"/>
<feOffset dx="4" dy="4"/>
<feGaussianBlur stdDeviation="4"/>
<feComposite in2="hardAlpha" operator="arithmetic" k2="-1" k3="1"/>
<feColorMatrix type="matrix" values="0 0 0 0 0 0 0 0 0 0 0 0 0 0 0 0 0 0 0.4 0"/>
<feBlend mode="normal" in2="shape" result="effect1_innerShadow_5453_37392"/>
</filter>
</defs>
</svg>
