<svg width="40" height="38" viewBox="0 0 40 38" fill="none" xmlns="http://www.w3.org/2000/svg">
<g filter="url(#filter0_i_5252_19564)">
<path fill-rule="evenodd" clip-rule="evenodd" d="M40 23.3858L40 0.000990073L-1.66099e-06 0.000991821L-6.38806e-07 23.3858L2.47403 23.3858L2.47403 32.1529L12.5707 32.1529L12.5707 38L27.4281 38L27.4281 32.1529L37.5214 32.1529L37.5214 23.3858L40 23.3858Z" fill="#44474F"/>
</g>
<mask id="mask0_5252_19564" style="mask-type:luminance" maskUnits="userSpaceOnUse" x="0" y="0" width="40" height="38">
<path fill-rule="evenodd" clip-rule="evenodd" d="M40 23.3858L40 0.000990073L-1.66099e-06 0.000991821L-6.38806e-07 23.3858L2.47403 23.3858L2.47403 32.1529L12.5707 32.1529L12.5707 38L27.4281 38L27.4281 32.1529L37.5214 32.1529L37.5214 23.3858L40 23.3858Z" fill="white"/>
</mask>
<g mask="url(#mask0_5252_19564)">
<path d="M40.0004 -0.00277136L40.0004 -3.31122L43.2147 -3.31122L43.2147 -0.0027715L40.0004 -0.00277136ZM40.0004 23.382L43.2147 23.382L43.2147 26.6905L40.0004 26.6905L40.0004 23.382ZM0.000419718 -0.00276961L-3.21387 -0.00276947L-3.21387 -3.31122L0.000419574 -3.31122L0.000419718 -0.00276961ZM0.000420741 23.382L0.000420885 26.6905L-3.21387 26.6905L-3.21387 23.382L0.000420741 23.382ZM2.47445 23.382L2.47445 20.0736L5.68857 20.0736L5.68857 23.382L2.47445 23.382ZM2.47445 32.1491L2.47445 35.4576L-0.739836 35.4576L-0.739836 32.1491L2.47445 32.1491ZM12.5711 32.1491L12.5711 28.8407L15.7854 28.8407L15.7854 32.1491L12.5711 32.1491ZM12.5711 37.9962L12.5711 41.3047L9.35683 41.3047L9.35683 37.9962L12.5711 37.9962ZM27.4285 37.9962L30.6428 37.9962L30.6428 41.3047L27.4285 41.3047L27.4285 37.9962ZM27.4285 32.1491L24.2142 32.1491L24.2142 28.8407L27.4285 28.8407L27.4285 32.1491ZM37.5219 32.1491L40.7362 32.1491L40.7362 35.4576L37.5219 35.4576L37.5219 32.1491ZM37.5219 23.382L34.3076 23.382L34.3076 20.0736L37.5219 20.0736L37.5219 23.382ZM43.2147 -0.0027715L43.2147 23.382L36.7861 23.382L36.7861 -0.00277122L43.2147 -0.0027715ZM0.000419574 -3.31122L40.0004 -3.31122L40.0004 3.30568L0.000419863 3.30568L0.000419574 -3.31122ZM-3.21387 23.382L-3.21387 -0.00276947L3.21524 -0.00276975L3.21524 23.382L-3.21387 23.382ZM2.47445 26.6905L0.000420885 26.6905L0.000420596 20.0736L2.47445 20.0736L2.47445 26.6905ZM-0.739836 32.1491L-0.739837 23.382L5.68857 23.382L5.68857 32.1491L-0.739836 32.1491ZM12.5711 35.4576L2.47445 35.4576L2.47445 28.8407L12.5711 28.8407L12.5711 35.4576ZM15.7854 32.1491L15.7854 37.9962L9.35683 37.9962L9.35683 32.1491L15.7854 32.1491ZM12.5711 34.6878L27.4285 34.6878L27.4285 41.3047L12.5711 41.3047L12.5711 34.6878ZM24.2142 37.9962L24.2142 32.1491L30.6428 32.1491L30.6428 37.9962L24.2142 37.9962ZM37.5219 35.4576L27.4285 35.4576L27.4285 28.8407L37.5219 28.8407L37.5219 35.4576ZM40.7362 23.382L40.7362 32.1491L34.3076 32.1491L34.3076 23.382L40.7362 23.382ZM40.0004 26.6905L37.5219 26.6905L37.5219 20.0736L40.0004 20.0736L40.0004 26.6905Z" fill="#44474F"/>
</g>
<mask id="mask1_5252_19564" style="mask-type:luminance" maskUnits="userSpaceOnUse" x="0" y="0" width="40" height="38">
<path fill-rule="evenodd" clip-rule="evenodd" d="M40 23.3858L40 0.000990073L-1.66099e-06 0.000991821L-6.38806e-07 23.3858L2.47403 23.3858L2.47403 32.1529L12.5707 32.1529L12.5707 38L27.4281 38L27.4281 32.1529L37.5214 32.1529L37.5214 23.3858L40 23.3858Z" fill="white"/>
</mask>
<g mask="url(#mask1_5252_19564)">
<path d="M40.0004 -0.00277136L40.0004 -3.31122L43.2147 -3.31122L43.2147 -0.0027715L40.0004 -0.00277136ZM40.0004 23.382L43.2147 23.382L43.2147 26.6905L40.0004 26.6905L40.0004 23.382ZM0.000419718 -0.00276961L-3.21387 -0.00276947L-3.21387 -3.31122L0.000419574 -3.31122L0.000419718 -0.00276961ZM0.000420741 23.382L0.000420885 26.6905L-3.21387 26.6905L-3.21387 23.382L0.000420741 23.382ZM2.47445 23.382L2.47445 20.0736L5.68857 20.0736L5.68857 23.382L2.47445 23.382ZM2.47445 32.1491L2.47445 35.4576L-0.739836 35.4576L-0.739836 32.1491L2.47445 32.1491ZM12.5711 32.1491L12.5711 28.8407L15.7854 28.8407L15.7854 32.1491L12.5711 32.1491ZM12.5711 37.9962L12.5711 41.3047L9.35683 41.3047L9.35683 37.9962L12.5711 37.9962ZM27.4285 37.9962L30.6428 37.9962L30.6428 41.3047L27.4285 41.3047L27.4285 37.9962ZM27.4285 32.1491L24.2142 32.1491L24.2142 28.8407L27.4285 28.8407L27.4285 32.1491ZM37.5219 32.1491L40.7362 32.1491L40.7362 35.4576L37.5219 35.4576L37.5219 32.1491ZM37.5219 23.382L34.3076 23.382L34.3076 20.0736L37.5219 20.0736L37.5219 23.382ZM43.2147 -0.0027715L43.2147 23.382L36.7861 23.382L36.7861 -0.00277122L43.2147 -0.0027715ZM0.000419574 -3.31122L40.0004 -3.31122L40.0004 3.30568L0.000419863 3.30568L0.000419574 -3.31122ZM-3.21387 23.382L-3.21387 -0.00276947L3.21524 -0.00276975L3.21524 23.382L-3.21387 23.382ZM2.47445 26.6905L0.000420885 26.6905L0.000420596 20.0736L2.47445 20.0736L2.47445 26.6905ZM-0.739836 32.1491L-0.739837 23.382L5.68857 23.382L5.68857 32.1491L-0.739836 32.1491ZM12.5711 35.4576L2.47445 35.4576L2.47445 28.8407L12.5711 28.8407L12.5711 35.4576ZM15.7854 32.1491L15.7854 37.9962L9.35683 37.9962L9.35683 32.1491L15.7854 32.1491ZM12.5711 34.6878L27.4285 34.6878L27.4285 41.3047L12.5711 41.3047L12.5711 34.6878ZM24.2142 37.9962L24.2142 32.1491L30.6428 32.1491L30.6428 37.9962L24.2142 37.9962ZM37.5219 35.4576L27.4285 35.4576L27.4285 28.8407L37.5219 28.8407L37.5219 35.4576ZM40.7362 23.382L40.7362 32.1491L34.3076 32.1491L34.3076 23.382L40.7362 23.382ZM40.0004 26.6905L37.5219 26.6905L37.5219 20.0736L40.0004 20.0736L40.0004 26.6905Z" fill="#74777F"/>
</g>
<defs>
<filter id="filter0_i_5252_19564" x="0" y="0" width="43" height="41" filterUnits="userSpaceOnUse" color-interpolation-filters="sRGB">
<feFlood flood-opacity="0" result="BackgroundImageFix"/>
<feBlend mode="normal" in="SourceGraphic" in2="BackgroundImageFix" result="shape"/>
<feColorMatrix in="SourceAlpha" type="matrix" values="0 0 0 0 0 0 0 0 0 0 0 0 0 0 0 0 0 0 127 0" result="hardAlpha"/>
<feOffset dx="6" dy="3"/>
<feGaussianBlur stdDeviation="1.5"/>
<feComposite in2="hardAlpha" operator="arithmetic" k2="-1" k3="1"/>
<feColorMatrix type="matrix" values="0 0 0 0 0 0 0 0 0 0 0 0 0 0 0 0 0 0 0.5 0"/>
<feBlend mode="normal" in2="shape" result="effect1_innerShadow_5252_19564"/>
</filter>
</defs>
</svg>
