<svg width="40" height="38" viewBox="0 0 40 38" fill="none" xmlns="http://www.w3.org/2000/svg">
<path fill-rule="evenodd" clip-rule="evenodd" d="M36.8043 21.8023C38.5699 21.8023 40 20.5197 40 18.9362L40 1.43304C40 0.642004 39.2858 -1.71724e-06 38.4022 -1.67861e-06L1.59783 -6.98432e-08C0.715825 -3.12898e-08 -1.63297e-06 0.642006 -1.59839e-06 1.43304L-8.33304e-07 18.9362C-7.64086e-07 20.5198 1.43005 21.8023 3.19565 21.8023L4.56501 21.8023L5.65313 30.1283C5.7474 30.8506 6.42965 31.3951 7.24135 31.3951L14.005 31.3951L14.005 36.567C14.005 37.358 14.7208 38 15.6028 38L25.1897 38C26.0717 38 26.7876 37.358 26.7876 36.567L26.7876 31.3951L32.7571 31.3951C33.5672 31.3951 34.2494 30.8506 34.3437 30.1283L35.4318 21.8023L36.8043 21.8023Z" fill="white"/>
<mask id="mask0_5252_19604" style="mask-type:luminance" maskUnits="userSpaceOnUse" x="0" y="0" width="40" height="38">
<path fill-rule="evenodd" clip-rule="evenodd" d="M36.8043 21.8023C38.5699 21.8023 40 20.5197 40 18.9362L40 1.43304C40 0.642004 39.2858 -1.71724e-06 38.4022 -1.67861e-06L1.59783 -6.98432e-08C0.715825 -3.12898e-08 -1.63297e-06 0.642006 -1.59839e-06 1.43304L-8.33304e-07 18.9362C-7.64086e-07 20.5198 1.43005 21.8023 3.19565 21.8023L4.56501 21.8023L5.65313 30.1283C5.7474 30.8506 6.42965 31.3951 7.24135 31.3951L14.005 31.3951L14.005 36.567C14.005 37.358 14.7208 38 15.6028 38L25.1897 38C26.0717 38 26.7876 37.358 26.7876 36.567L26.7876 31.3951L32.7571 31.3951C33.5672 31.3951 34.2494 30.8506 34.3437 30.1283L35.4318 21.8023L36.8043 21.8023Z" fill="white"/>
</mask>
<g mask="url(#mask0_5252_19604)">
<path d="M4.56518 21.8029L4.56518 20.3698L5.98724 20.3698L6.15181 21.6366L4.56518 21.8029ZM14.0051 31.3957L14.0051 29.9626L15.603 29.9626L15.603 31.3957L14.0051 31.3957ZM26.7877 31.3957L25.1899 31.3957L25.1899 29.9626L26.7877 29.9626L26.7877 31.3957ZM35.432 21.8029L33.8454 21.6366L34.0115 20.3698L35.432 20.3698L35.432 21.8029ZM41.598 18.9368C41.598 21.3113 39.4521 23.2359 36.8045 23.2359L36.8045 20.3698C37.6881 20.3698 38.4023 19.7293 38.4023 18.9368L41.598 18.9368ZM41.598 1.43359L41.598 18.9368L38.4023 18.9368L38.4023 1.43359L41.598 1.43359ZM38.4023 -1.4325C40.1679 -1.4325 41.598 -0.148489 41.598 1.43359L38.4023 1.43359L38.4023 -1.4325ZM1.598 -1.4325L38.4023 -1.4325L38.4023 1.43359L1.598 1.43359L1.598 -1.4325ZM-1.59766 1.43359C-1.59766 -0.148487 -0.167603 -1.4325 1.598 -1.4325L1.598 1.43359L-1.59766 1.43359ZM-1.59766 18.9368L-1.59766 1.43359L1.598 1.43359L1.598 18.9368L-1.59766 18.9368ZM3.19582 23.2359C0.548225 23.2359 -1.59766 21.3113 -1.59766 18.9368L1.598 18.9368C1.598 19.7293 2.31382 20.3698 3.19582 20.3698L3.19582 23.2359ZM4.56518 23.2359L3.19582 23.2359L3.19582 20.3698L4.56518 20.3698L4.56518 23.2359ZM4.06664 30.2965L2.97852 21.9705L6.15181 21.6366L7.24152 29.9626L4.06664 30.2965ZM7.24152 32.8287C5.61973 32.8287 4.25518 31.7396 4.06664 30.2965L7.24152 29.9626L7.24152 32.8287ZM14.0051 32.8287L7.24152 32.8287L7.24152 29.9626L14.0051 29.9626L14.0051 32.8287ZM15.603 31.3957L15.603 36.5675L12.4073 36.5675L12.4073 31.3957L15.603 31.3957ZM15.603 36.5675L15.603 39.4336C13.8374 39.4336 12.4073 38.151 12.4073 36.5675L15.603 36.5675ZM15.603 36.5675L25.1899 36.5675L25.1899 39.4336L15.603 39.4336L15.603 36.5675ZM25.1899 36.5675L28.3856 36.5675C28.3856 38.151 26.9539 39.4336 25.1899 39.4336L25.1899 36.5675ZM25.1899 36.5675L25.1899 31.3957L28.3856 31.3957L28.3856 36.5675L25.1899 36.5675ZM32.7572 32.8287L26.7877 32.8287L26.7877 29.9626L32.7572 29.9626L32.7572 32.8287ZM35.9305 30.2965C35.742 31.7396 34.3774 32.8287 32.7572 32.8287L32.7572 29.9626L35.9305 30.2965ZM37.0202 21.9705L35.9305 30.2965L32.7572 29.9626L33.8454 21.6366L37.0202 21.9705ZM36.8045 23.2359L35.432 23.2359L35.432 20.3698L36.8045 20.3698L36.8045 23.2359Z" fill="#74777F"/>
</g>
<mask id="mask1_5252_19604" style="mask-type:luminance" maskUnits="userSpaceOnUse" x="0" y="0" width="40" height="38">
<path fill-rule="evenodd" clip-rule="evenodd" d="M36.8043 21.8023C38.5699 21.8023 40 20.5197 40 18.9362L40 1.43304C40 0.642004 39.2858 -1.71724e-06 38.4022 -1.67861e-06L1.59783 -6.98432e-08C0.715825 -3.12898e-08 -1.63297e-06 0.642006 -1.59839e-06 1.43304L-8.33304e-07 18.9362C-7.64086e-07 20.5198 1.43005 21.8023 3.19565 21.8023L4.56501 21.8023L5.65313 30.1283C5.7474 30.8506 6.42965 31.3951 7.24135 31.3951L14.005 31.3951L14.005 36.567C14.005 37.358 14.7208 38 15.6028 38L25.1897 38C26.0717 38 26.7876 37.358 26.7876 36.567L26.7876 31.3951L32.7571 31.3951C33.5672 31.3951 34.2494 30.8506 34.3437 30.1283L35.4318 21.8023L36.8043 21.8023Z" fill="white"/>
</mask>
<g mask="url(#mask1_5252_19604)">
<path d="M4.56518 21.8029L4.56518 20.3698L5.98724 20.3698L6.15181 21.6366L4.56518 21.8029ZM14.0051 31.3957L14.0051 29.9626L15.603 29.9626L15.603 31.3957L14.0051 31.3957ZM26.7877 31.3957L25.1899 31.3957L25.1899 29.9626L26.7877 29.9626L26.7877 31.3957ZM35.432 21.8029L33.8454 21.6366L34.0115 20.3698L35.432 20.3698L35.432 21.8029ZM41.598 18.9368C41.598 21.3113 39.4521 23.2359 36.8045 23.2359L36.8045 20.3698C37.6881 20.3698 38.4023 19.7293 38.4023 18.9368L41.598 18.9368ZM41.598 1.43359L41.598 18.9368L38.4023 18.9368L38.4023 1.43359L41.598 1.43359ZM38.4023 -1.4325C40.1679 -1.4325 41.598 -0.148489 41.598 1.43359L38.4023 1.43359L38.4023 -1.4325ZM1.598 -1.4325L38.4023 -1.4325L38.4023 1.43359L1.598 1.43359L1.598 -1.4325ZM-1.59766 1.43359C-1.59766 -0.148487 -0.167603 -1.4325 1.598 -1.4325L1.598 1.43359L-1.59766 1.43359ZM-1.59766 18.9368L-1.59766 1.43359L1.598 1.43359L1.598 18.9368L-1.59766 18.9368ZM3.19582 23.2359C0.548225 23.2359 -1.59766 21.3113 -1.59766 18.9368L1.598 18.9368C1.598 19.7293 2.31382 20.3698 3.19582 20.3698L3.19582 23.2359ZM4.56518 23.2359L3.19582 23.2359L3.19582 20.3698L4.56518 20.3698L4.56518 23.2359ZM4.06664 30.2965L2.97852 21.9705L6.15181 21.6366L7.24152 29.9626L4.06664 30.2965ZM7.24152 32.8287C5.61973 32.8287 4.25518 31.7396 4.06664 30.2965L7.24152 29.9626L7.24152 32.8287ZM14.0051 32.8287L7.24152 32.8287L7.24152 29.9626L14.0051 29.9626L14.0051 32.8287ZM15.603 31.3957L15.603 36.5675L12.4073 36.5675L12.4073 31.3957L15.603 31.3957ZM15.603 36.5675L15.603 39.4336C13.8374 39.4336 12.4073 38.151 12.4073 36.5675L15.603 36.5675ZM15.603 36.5675L25.1899 36.5675L25.1899 39.4336L15.603 39.4336L15.603 36.5675ZM25.1899 36.5675L28.3856 36.5675C28.3856 38.151 26.9539 39.4336 25.1899 39.4336L25.1899 36.5675ZM25.1899 36.5675L25.1899 31.3957L28.3856 31.3957L28.3856 36.5675L25.1899 36.5675ZM32.7572 32.8287L26.7877 32.8287L26.7877 29.9626L32.7572 29.9626L32.7572 32.8287ZM35.9305 30.2965C35.742 31.7396 34.3774 32.8287 32.7572 32.8287L32.7572 29.9626L35.9305 30.2965ZM37.0202 21.9705L35.9305 30.2965L32.7572 29.9626L33.8454 21.6366L37.0202 21.9705ZM36.8045 23.2359L35.432 23.2359L35.432 20.3698L36.8045 20.3698L36.8045 23.2359Z" fill="#74777F"/>
</g>
<path d="M15.6035 21.4531L24.7591 21.4531" stroke="#74777F" stroke-width="0.8" stroke-linecap="round"/>
<path d="M15.6035 21.4531L24.7591 21.4531" stroke="#74777F" stroke-width="0.8" stroke-linecap="round"/>
<path d="M15.6035 24.207L24.7591 24.207" stroke="#74777F" stroke-width="0.8" stroke-linecap="round"/>
<path d="M15.6035 24.207L24.7591 24.207" stroke="#74777F" stroke-width="0.8" stroke-linecap="round"/>
</svg>
