<svg width="40" height="38" viewBox="0 0 40 38" fill="none" xmlns="http://www.w3.org/2000/svg">
<path fill-rule="evenodd" clip-rule="evenodd" d="M36.8043 21.8023C38.5699 21.8023 40 20.5197 40 18.9362L40 1.43304C40 0.642003 39.2858 -5.8092e-07 38.4022 -5.42297e-07L1.59783 1.06647e-06C0.715825 1.10503e-06 -1.63297e-06 0.642004 -1.59839e-06 1.43304L-8.33304e-07 18.9362C-7.64086e-07 20.5198 1.43005 21.8023 3.19565 21.8023L4.56501 21.8023L5.65313 30.1283C5.7474 30.8506 6.42965 31.3951 7.24135 31.3951L14.005 31.3951L14.005 36.567C14.005 37.358 14.7208 38 15.6028 38L25.1897 38C26.0717 38 26.7876 37.358 26.7876 36.567L26.7876 31.3951L32.7571 31.3951C33.5672 31.3951 34.2494 30.8506 34.3437 30.1283L35.4318 21.8023L36.8043 21.8023Z" fill="white"/>
<path fill-rule="evenodd" clip-rule="evenodd" d="M6.32064 19.8023L7.57432 29.3951L16.005 29.3951L16.005 36L24.7876 36L24.7876 29.3951L32.4225 29.3951L33.6762 19.8023L36.8043 19.8023C37.6757 19.8023 38 19.216 38 18.9362L38 2L2 2L2 18.9362C2 19.216 2.32433 19.8023 3.19565 19.8023L6.32064 19.8023ZM32.3606 29.8691C32.3607 29.8684 32.3607 29.8677 32.3608 29.867L32.3606 29.8691ZM35.4318 21.8023L34.3437 30.1283C34.2494 30.8506 33.5672 31.3951 32.7571 31.3951L26.7876 31.3951L26.7876 36.567C26.7876 37.358 26.0717 38 25.1897 38L15.6028 38C14.7208 38 14.005 37.358 14.005 36.567L14.005 31.3951L7.24135 31.3951C6.42965 31.3951 5.7474 30.8506 5.65313 30.1283L4.56501 21.8023L3.19565 21.8023C1.43005 21.8023 -7.64086e-07 20.5198 -8.33304e-07 18.9362L-1.59839e-06 1.43304C-1.63297e-06 0.642006 0.715825 -3.12898e-08 1.59783 -6.98432e-08L38.4022 -1.67861e-06C39.2858 -1.71724e-06 40 0.642004 40 1.43304L40 18.9362C40 20.5197 38.5699 21.8023 36.8043 21.8023L35.4318 21.8023Z" fill="#74777F"/>
<path fill-rule="evenodd" clip-rule="evenodd" d="M15.1035 20.5C15.1035 20.2239 15.3274 20 15.6035 20L24.7591 20C25.0352 20 25.2591 20.2239 25.2591 20.5C25.2591 20.7761 25.0352 21 24.7591 21L15.6035 21C15.3274 21 15.1035 20.7761 15.1035 20.5Z" fill="#74777F"/>
<path fill-rule="evenodd" clip-rule="evenodd" d="M15.1035 23.2539C15.1035 22.9778 15.3274 22.7539 15.6035 22.7539L24.7591 22.7539C25.0352 22.7539 25.2591 22.9778 25.2591 23.2539C25.2591 23.53 25.0352 23.7539 24.7591 23.7539L15.6035 23.7539C15.3274 23.7539 15.1035 23.53 15.1035 23.2539Z" fill="#74777F"/>
</svg>
