<svg width="340" height="253" viewBox="0 0 340 253" fill="none" xmlns="http://www.w3.org/2000/svg">
<path d="M338.695 2.54614H1.62744V231.987H338.695V2.54614Z" stroke="black" stroke-width="1.85"/>
<path d="M167.583 170.815H98.2939V186.93H167.583V170.815Z" fill="white" stroke="black" stroke-width="2"/>
<path d="M132.519 239.257C192.033 239.257 240.278 192.913 240.278 135.743C240.278 78.5741 192.033 32.2292 132.519 32.2292C73.0048 32.2292 24.7593 78.5741 24.7593 135.743C24.7593 192.913 73.0048 239.257 132.519 239.257Z" fill="#2C9FD9" fill-opacity="0.08"/>
<path d="M133.001 209.567C161.959 209.567 185.433 187.006 185.433 159.174C185.433 131.343 161.959 108.781 133.001 108.781C104.044 108.781 80.5691 131.343 80.5691 159.174C80.5691 187.006 104.044 209.567 133.001 209.567Z" fill="#2C9FD9" fill-opacity="0.1"/>
<path d="M134.449 183.889C147.595 183.889 158.252 173.758 158.252 161.261C158.252 148.763 147.595 138.632 134.449 138.632C121.302 138.632 110.645 148.763 110.645 161.261C110.645 173.758 121.302 183.889 134.449 183.889Z" fill="#2C9FD9" fill-opacity="0.3"/>
<path d="M111.185 186.93L99.9053 230.439" stroke="black" stroke-width="2"/>
<path d="M154.692 186.93L164.36 230.439" stroke="black" stroke-width="2"/>
<path d="M132.133 170.815V186.93" stroke="black" stroke-width="0.34"/>
<path d="M122.464 178.873H111.185" stroke="black"/>
<path d="M154.692 178.873H145.024" stroke="black"/>
<path d="M269.641 177.668H234.865V231.889H269.641V177.668Z" stroke="black" stroke-width="2"/>
<path d="M247.999 184.998H256.524" stroke="black"/>
<path d="M235.402 191.375H269.641" stroke="black"/>
<path d="M90.3005 89.275H92.3105L94.6671 95.4093C95.1176 96.6397 95.8107 98.9444 95.8107 98.9444H95.8454C95.8454 98.9444 96.5385 96.657 97.0063 95.4093L99.3109 89.275H101.373V100.573H99.8827V93.7458C99.8827 92.7407 99.9693 90.8519 99.9693 90.8519H99.9347C99.9347 90.8519 99.4842 92.5501 99.1376 93.4339L96.3825 100.591H95.1696L92.4145 93.4339C92.1026 92.5501 91.6174 90.8519 91.6174 90.8519H91.5828C91.5828 90.8519 91.6694 92.7407 91.6694 93.7458V100.573H90.2659V89.275H90.3005Z" fill="#231F20"/>
<path d="M107.004 100.799C104.492 100.799 103.019 98.8924 103.019 96.5011C103.019 94.1098 104.579 92.2209 106.918 92.2209C108.131 92.2209 109.066 92.6888 109.708 93.4859C110.383 94.283 110.713 95.4614 110.713 96.8477H104.457C104.561 98.4419 105.428 99.6549 107.004 99.6549C108.131 99.6549 108.91 99.1177 109.153 98.2513H110.539C110.175 99.7762 108.876 100.799 106.987 100.799H107.004ZM104.492 95.8253H109.205C109.136 94.2657 108.321 93.3127 106.918 93.3127C105.514 93.3127 104.665 94.3697 104.492 95.8253Z" fill="#231F20"/>
<path d="M111.683 98.0952H113.104C113.277 99.2736 114.178 99.6721 115.356 99.6721C116.639 99.6721 117.193 99.1176 117.193 98.3898C117.193 97.4887 116.517 97.2635 115.062 96.9862C113.468 96.657 112.029 96.3104 112.029 94.5255C112.029 93.1219 113.121 92.2555 115.027 92.2555C117.072 92.2555 118.094 93.2086 118.267 94.6295H116.864C116.743 93.7977 116.171 93.3299 114.992 93.3299C113.883 93.3299 113.416 93.8497 113.416 94.4736C113.416 95.3227 114.213 95.4959 115.582 95.7559C117.21 96.0678 118.597 96.4317 118.597 98.3378C118.597 99.984 117.228 100.85 115.322 100.85C113.069 100.85 111.804 99.7934 111.683 98.1299V98.0952Z" fill="#231F20"/>
<path d="M121.525 100.573H120.121V89.275H121.525V92.2382C121.525 92.6368 121.525 93.2086 121.473 93.6072H121.525C122.131 92.7407 122.946 92.2209 124.141 92.2209C125.839 92.2209 126.896 93.174 126.896 94.8722V100.573H125.493V95.0454C125.493 94.0057 124.817 93.3992 123.708 93.3992C122.443 93.3992 121.542 94.3003 121.542 95.6V100.556L121.525 100.573Z" fill="#231F20"/>
<path d="M134.521 95.8599V100.573H132.979V89.275H138.263C140.291 89.275 141.642 90.5227 141.642 92.3942C141.642 93.7805 141.088 94.7509 139.58 95.2187V95.2707C140.863 95.6519 141.226 96.4144 141.33 98.026C141.469 99.8108 141.625 100.348 141.85 100.504V100.573H140.187C139.927 100.365 139.892 99.8455 139.771 98.0433C139.667 96.4491 138.991 95.8772 137.518 95.8772H134.521V95.8599ZM134.521 94.6296H137.761C139.303 94.6296 140.048 93.8498 140.048 92.6194C140.048 91.3025 139.424 90.6093 137.83 90.6093H134.521V94.6122V94.6296Z" fill="#231F20"/>
<path d="M142.873 96.5011C142.873 94.1271 144.415 92.2209 146.858 92.2209C149.301 92.2209 150.826 94.1271 150.826 96.5011C150.826 98.8751 149.318 100.799 146.858 100.799C144.397 100.799 142.873 98.8924 142.873 96.5011ZM149.388 96.5011C149.388 94.7336 148.521 93.3473 146.858 93.3473C145.194 93.3473 144.328 94.7509 144.328 96.5011C144.328 98.2513 145.194 99.6376 146.858 99.6376C148.521 99.6376 149.388 98.2513 149.388 96.5011Z" fill="#231F20"/>
<path d="M152.264 98.0433V92.4288H153.668V97.974C153.668 99.0137 154.326 99.6202 155.452 99.6202C156.7 99.6202 157.497 98.6671 157.497 97.4021V92.4462H158.901V100.591H157.497V99.4469H157.462C156.891 100.244 156.18 100.764 155.002 100.764C153.321 100.764 152.247 99.7415 152.247 98.0433H152.264Z" fill="#231F20"/>
<path d="M163.475 100.625C162.384 100.625 161.621 100.175 161.621 98.9618V93.5033H160.339V92.4116H161.621V89.8469H163.025V92.4116H164.705V93.5033H163.025V98.6498C163.025 99.239 163.337 99.4123 163.856 99.4123C164.099 99.4123 164.411 99.343 164.567 99.3083H164.619V100.487C164.238 100.573 163.839 100.625 163.475 100.625Z" fill="#231F20"/>
<path d="M169.626 100.799C167.114 100.799 165.641 98.8924 165.641 96.5011C165.641 94.1098 167.201 92.2209 169.54 92.2209C170.753 92.2209 171.688 92.6888 172.33 93.4859C173.005 94.283 173.335 95.4614 173.335 96.8477H167.079C167.183 98.4419 168.05 99.6549 169.626 99.6549C170.753 99.6549 171.532 99.1177 171.775 98.2513H173.161C172.797 99.7762 171.498 100.799 169.609 100.799H169.626ZM167.131 95.8253H171.844C171.775 94.2657 170.961 93.3127 169.557 93.3127C168.154 93.3127 167.305 94.3697 167.131 95.8253Z" fill="#231F20"/>
<path d="M174.825 100.573V92.4288H176.228V93.9017H176.28C176.783 92.966 177.614 92.3248 178.689 92.3248C178.914 92.3248 179.053 92.3595 179.209 92.4115V93.7458H179.157C178.966 93.6765 178.827 93.6765 178.585 93.6765C177.32 93.6765 176.246 94.6122 176.246 96.1544V100.591H174.842L174.825 100.573Z" fill="#231F20"/>
<path d="M218.577 120.761H220.587L222.943 126.895C223.394 128.126 224.087 130.43 224.087 130.43H224.121C224.121 130.43 224.815 128.143 225.282 126.895L227.587 120.761H229.649V132.059H228.159V125.232C228.159 124.227 228.245 122.338 228.245 122.338H228.211C228.211 122.338 227.76 124.036 227.414 124.92L224.659 132.077H223.446L220.691 124.92C220.379 124.036 219.894 122.338 219.894 122.338H219.859C219.859 122.338 219.946 124.227 219.946 125.232V132.059H218.542V120.761H218.577Z" fill="#231F20"/>
<path d="M235.263 132.285C232.751 132.285 231.278 130.379 231.278 127.987C231.278 125.596 232.837 123.707 235.177 123.707C236.389 123.707 237.325 124.175 237.966 124.972C238.642 125.769 238.971 126.947 238.971 128.334H232.716C232.82 129.928 233.686 131.141 235.263 131.141C236.389 131.141 237.169 130.604 237.412 129.737H238.798C238.434 131.262 237.135 132.285 235.246 132.285H235.263ZM232.751 127.311H237.464C237.394 125.752 236.58 124.799 235.177 124.799C233.773 124.799 232.924 125.856 232.751 127.311Z" fill="#231F20"/>
<path d="M239.942 129.581H241.363C241.536 130.76 242.437 131.158 243.615 131.158C244.897 131.158 245.452 130.604 245.452 129.876C245.452 128.975 244.776 128.75 243.321 128.472C241.726 128.143 240.288 127.796 240.288 126.012C240.288 124.608 241.38 123.742 243.286 123.742C245.331 123.742 246.353 124.695 246.526 126.116H245.123C245.001 125.284 244.43 124.816 243.251 124.816C242.142 124.816 241.674 125.336 241.674 125.96C241.674 126.809 242.471 126.982 243.84 127.242C245.469 127.554 246.855 127.918 246.855 129.824C246.855 131.487 245.486 132.337 243.58 132.337C241.328 132.337 240.063 131.28 239.942 129.616V129.581Z" fill="#231F20"/>
<path d="M249.784 132.059H248.38V120.761H249.784V123.724C249.784 124.123 249.784 124.695 249.732 125.093H249.784C250.39 124.227 251.205 123.707 252.4 123.707C254.098 123.707 255.155 124.66 255.155 126.358V132.059H253.752V126.532C253.752 125.492 253.076 124.885 251.967 124.885C250.702 124.885 249.801 125.786 249.801 127.086V132.042L249.784 132.059Z" fill="#231F20"/>
<path d="M261.237 120.761H262.866L267.493 127.831C268.047 128.663 268.757 130.084 268.757 130.084H268.809C268.809 130.084 268.706 128.611 268.706 127.675V120.761H270.161V132.059H268.55L263.94 124.989C263.386 124.14 262.658 122.754 262.658 122.754H262.624C262.624 122.754 262.71 124.227 262.71 125.145V132.059H261.255V120.761H261.237Z" fill="#231F20"/>
<path d="M271.842 127.987C271.842 125.613 273.367 123.707 275.827 123.707C278.288 123.707 279.795 125.613 279.795 127.987C279.795 130.361 278.288 132.285 275.827 132.285C273.367 132.285 271.842 130.379 271.842 127.987ZM278.34 127.987C278.34 126.22 277.473 124.833 275.81 124.833C274.146 124.833 273.28 126.237 273.28 127.987C273.28 129.737 274.146 131.124 275.81 131.124C277.473 131.124 278.34 129.737 278.34 127.987Z" fill="#231F20"/>
<path d="M280.835 128.004C280.835 125.319 282.377 123.707 284.404 123.707C285.565 123.707 286.466 124.279 286.986 125.145H287.021C287.021 124.764 286.969 124.175 286.969 123.638V120.761H288.372V132.059H286.969V130.898H286.934C286.414 131.782 285.548 132.302 284.422 132.302C282.221 132.302 280.817 130.638 280.817 128.004H280.835ZM287.038 128.022C287.038 126.185 286.172 124.885 284.525 124.885C283.018 124.885 282.256 126.22 282.256 128.022C282.256 129.824 283.018 131.141 284.525 131.141C286.276 131.141 287.038 129.824 287.038 128.022Z" fill="#231F20"/>
<path d="M293.848 132.285C291.335 132.285 289.863 130.379 289.863 127.987C289.863 125.596 291.422 123.707 293.761 123.707C294.974 123.707 295.91 124.175 296.551 124.972C297.227 125.769 297.556 126.947 297.556 128.334H291.301C291.405 129.928 292.271 131.141 293.848 131.141C294.974 131.141 295.754 130.604 295.997 129.737H297.383C297.019 131.262 295.719 132.285 293.831 132.285H293.848ZM291.335 127.311H296.049C295.979 125.752 295.165 124.799 293.761 124.799C292.358 124.799 291.509 125.856 291.335 127.311Z" fill="#231F20"/>
<path d="M249.152 162.146H258.431V174.65H249.152V162.146Z" fill="white" stroke="#666666" stroke-width="2"/>
<path d="M128.299 152.478H140.801V168.204H128.299V152.478Z" fill="white" stroke="#666666" stroke-width="2"/>
</svg>
