<svg width="260" height="243" viewBox="0 0 260 243" fill="none" xmlns="http://www.w3.org/2000/svg">
<g clip-path="url(#clip0_1288_14222)">
<path d="M258.326 17.6727H1.82068V208.538H258.326V17.6727Z" stroke="black" stroke-width="1.9853"/>
<path d="M0.353271 111.78H259.94" stroke="black" stroke-width="1.9853"/>
<path d="M92.0672 111.044V17.5255" stroke="black" stroke-width="1.9853"/>
<path d="M139.962 112.008L139.962 18.0352" stroke="black" stroke-width="1.9853"/>
<path d="M158.936 207.879L158.936 112.008" stroke="black" stroke-width="1.9853"/>
<path d="M246.147 82.9146H190.825V111.191H246.147V82.9146Z" stroke="black" stroke-width="0.9927"/>
<path d="M246.44 85.8601H206.673V86.7437H246.44V85.8601Z" stroke="black" stroke-width="0.6024"/>
<path d="M181.286 82.9146H163.09V111.191H181.286V82.9146Z" stroke="black" stroke-width="0.9927"/>
<path d="M169.987 86.7437H174.536" stroke="black" stroke-width="0.2482"/>
<path d="M163.384 90.131H182.02" stroke="black" stroke-width="0.9927"/>
<path d="M190.971 91.8982H206.233" stroke="black" stroke-width="0.2482"/>
<path d="M190.971 100.146H206.233" stroke="black" stroke-width="0.2482"/>
<path d="M196.841 87.6273H201.243" stroke="black" stroke-width="0.2482"/>
<path d="M196.841 95.8746H201.243" stroke="black" stroke-width="0.2482"/>
<path d="M196.841 104.416H201.243" stroke="black" stroke-width="0.2482"/>
<path d="M190.971 108.393H207.113" stroke="black" stroke-width="0.2482"/>
<path d="M206.966 83.0619V109.866" stroke="black" stroke-width="0.9927"/>
<path d="M50.2456 134.607H17.6689V207.655H50.2456V134.607Z" stroke="black" stroke-width="0.9927"/>
<path d="M18.5493 148.598H49.9522" stroke="black" stroke-width="0.7445"/>
<path d="M18.5493 171.72H49.9522" stroke="black" stroke-width="0.7445"/>
<path d="M18.5493 161.116H49.9522" stroke="black" stroke-width="0.7445"/>
<path d="M18.5493 182.176H49.9522" stroke="black" stroke-width="0.7445"/>
<path d="M18.5493 192.633H49.9522" stroke="black" stroke-width="0.7445"/>
<path d="M18.5493 203.089H49.9522" stroke="black" stroke-width="0.7445"/>
<path d="M24.1255 152.722H22.2179V159.644H24.1255V152.722Z" stroke="black" stroke-width="0.4963"/>
<path d="M26.0332 152.722H24.1255V159.644H26.0332V152.722Z" stroke="black" stroke-width="0.4963"/>
<path d="M28.2343 152.722H25.8864V159.644H28.2343V152.722Z" stroke="black" stroke-width="0.4963"/>
<path d="M46.1368 140.498H44.2292V147.862H46.1368V140.498Z" stroke="black" stroke-width="0.4963"/>
<path d="M43.9357 144.18H39.24V147.862H43.9357V144.18Z" stroke="black" stroke-width="0.4963"/>
<path d="M26.0332 184.975H21.3374V192.338H26.0332V184.975Z" stroke="black" stroke-width="0.4963"/>
<path d="M30.1419 184.975H25.8864V192.338H30.1419V184.975Z" stroke="black" stroke-width="0.4963"/>
<path d="M34.5442 184.975H29.8484V192.338H34.5442V184.975Z" stroke="black" stroke-width="0.4963"/>
<path d="M46.5771 199.849H36.5986V202.647H46.5771V199.849Z" stroke="black" stroke-width="0.4963"/>
<path d="M42.4683 163.473H40.1204V170.836H42.4683V163.473Z" stroke="black" stroke-width="0.4963"/>
<path d="M44.3759 163.473H42.4683V170.836H44.3759V163.473Z" stroke="black" stroke-width="0.4963"/>
<path d="M46.5771 163.473H44.2292V170.836H46.5771V163.473Z" stroke="black" stroke-width="0.4963"/>
<path d="M27.7941 168.775H20.457V170.689H27.7941V168.775Z" stroke="black" stroke-width="0.4963"/>
<path d="M38.5062 163.473H36.5986V170.836H38.5062V163.473Z" stroke="black" stroke-width="0.4963"/>
<path d="M23.6853 168.48C24.4147 168.48 25.006 167.887 25.006 167.155C25.006 166.423 24.4147 165.829 23.6853 165.829C22.9559 165.829 22.3646 166.423 22.3646 167.155C22.3646 167.887 22.9559 168.48 23.6853 168.48Z" stroke="black" stroke-width="0.4963"/>
<path d="M212.689 176.433H167.786V207.213H212.689V176.433Z" stroke="black" stroke-width="0.9927"/>
<path d="M212.689 176.433H167.786V179.378H212.689V176.433Z" stroke="black" stroke-width="0.9927"/>
<path d="M253.043 153.016H220.467V207.655H253.043V153.016Z" stroke="black" stroke-width="0.9927"/>
<path d="M237.195 153.164V206.624" stroke="black" stroke-width="0.7445"/>
<path d="M190.678 179.673V206.624" stroke="black" stroke-width="0.7445"/>
<path d="M233.673 177.022V185.564" stroke="black" stroke-width="0.2482"/>
<path d="M187.156 184.238V189.982" stroke="black" stroke-width="0.2482"/>
<path d="M194.346 184.238V189.982" stroke="black" stroke-width="0.2482"/>
<path d="M240.424 177.022V185.564" stroke="black" stroke-width="0.2482"/>
<path d="M113.198 181.293H78.5669V189.835H113.198V181.293Z" fill="white" stroke="black" stroke-width="0.9927"/>
<path d="M84.1431 190.276L79.0071 209.716" stroke="black" stroke-width="0.9927"/>
<path d="M106.595 190.276L111.731 209.716" stroke="black" stroke-width="0.9927"/>
<path d="M95.8826 219.698C121.087 219.698 141.519 199.917 141.519 175.516C141.519 151.115 121.087 131.334 95.8826 131.334C70.678 131.334 50.2457 151.115 50.2457 175.516C50.2457 199.917 70.678 219.698 95.8826 219.698Z" fill="#2C9FD9" fill-opacity="0.1"/>
<path d="M95.8824 234.572C138.673 234.572 173.362 201.077 173.362 159.758C173.362 118.439 138.673 84.9431 95.8824 84.9431C53.0915 84.9431 18.4025 118.439 18.4025 159.758C18.4025 201.077 53.0915 234.572 95.8824 234.572Z" fill="#2C9FD9" fill-opacity="0.08"/>
<path d="M96.4695 194.956C107.735 194.956 116.867 186.186 116.867 175.369C116.867 164.551 107.735 155.781 96.4695 155.781C85.2045 155.781 76.0724 164.551 76.0724 175.369C76.0724 186.186 85.2045 194.956 96.4695 194.956Z" fill="#2C9FD9" fill-opacity="0.3"/>
<path d="M96.4694 166.974C101.312 166.974 105.127 170.656 105.127 175.369C105.127 179.934 101.312 183.763 96.4694 183.763C91.6269 183.763 87.8116 180.081 87.8116 175.369C87.8116 170.803 91.6269 166.974 96.4694 166.974Z" fill="#2C9FD9" fill-opacity="0.5"/>
<path d="M95.7357 181.587V189.393" stroke="black" stroke-width="0.2482"/>
<path d="M90.3062 185.858H84.8768" stroke="black" stroke-width="0.2482"/>
<path d="M106.888 185.858H101.459" stroke="black" stroke-width="0.2482"/>
<path d="M172.482 126.065C200.118 126.065 222.521 104.504 222.521 77.9072C222.521 51.3102 200.118 29.749 172.482 29.749C144.846 29.749 122.443 51.3102 122.443 77.9072C122.443 104.504 144.846 126.065 172.482 126.065Z" fill="#2C9FD9" fill-opacity="0.1"/>
<path d="M172.922 99.5563C185.727 99.5563 196.107 89.534 196.107 77.1709C196.107 64.8077 185.727 54.7854 172.922 54.7854C160.117 54.7854 149.737 64.8077 149.737 77.1709C149.737 89.534 160.117 99.5563 172.922 99.5563Z" fill="#2C9FD9" fill-opacity="0.3"/>
<path d="M173.069 152.133C215.374 152.133 249.668 119.033 249.668 78.2018C249.668 37.3709 215.374 4.27087 173.069 4.27087C130.764 4.27087 96.4694 37.3709 96.4694 78.2018C96.4694 119.033 130.764 152.133 173.069 152.133Z" fill="#2C9FD9" fill-opacity="0.08"/>
<path d="M175.064 75.9375H169.372V82.582H175.064V75.9375Z" fill="white" stroke="#666666"/>
<path d="M100.115 171.809H92.5256V180.352H100.115V171.809Z" fill="white" stroke="#666666"/>
</g>
<defs>
<clipPath id="clip0_1288_14222">
<rect width="259" height="243" fill="white" transform="translate(0.5)"/>
</clipPath>
</defs>
</svg>
