<svg width="59" height="89" viewBox="0 0 59 89" fill="#FAFAFA" xmlns="http://www.w3.org/2000/svg">
<path d="M48.0497 12.8366L48.0501 12.8368L57.0799 18.0482V28.4707V39.4707V50.4707V61.4707V71.8932L48.0501 77.1046L48.0497 77.1048L38.5301 82.6046L38.5297 82.6048L29.4999 87.8161L20.4702 82.6048L20.4698 82.6046L10.9502 77.1048L10.9498 77.1046L1.91992 71.8932V61.4707V50.4707V39.4707V28.4707V18.0482L10.9498 12.8368L10.9502 12.8366L20.4698 7.33681L20.4702 7.33659L29.4999 2.12529L38.5297 7.33659L38.5301 7.33681L48.0497 12.8366Z" stroke="#3B3B3B" stroke-width="2"/>
<path d="M1.81909 17.9841L29.4441 33.7352L57.2276 17.9841" stroke="#3B3B3B"/>
<path d="M29.4507 88.6626L29.4507 34.1567" stroke="#3B3B3B"/>
</svg>
