<svg width="192" height="40" viewBox="0 0 192 40" fill="none" xmlns="http://www.w3.org/2000/svg">
<path d="M20 36.6668C17.7223 36.6668 15.5695 36.2293 13.5417 35.3543C11.5139 34.4793 9.7431 33.2849 8.22921 31.771C6.71532 30.2571 5.52087 28.4863 4.64587 26.4585C3.77087 24.4307 3.33337 22.2779 3.33337 20.0002C3.33337 17.6946 3.77087 15.5349 4.64587 13.521C5.52087 11.5071 6.71532 9.74322 8.22921 8.22933C9.7431 6.71544 11.5139 5.521 13.5417 4.646C15.5695 3.771 17.7223 3.3335 20 3.3335C22.3056 3.3335 24.4653 3.771 26.4792 4.646C28.4931 5.521 30.257 6.71544 31.7709 8.22933C33.2848 9.74322 34.4792 11.5071 35.3542 13.521C36.2292 15.5349 36.6667 17.6946 36.6667 20.0002C36.6667 22.2779 36.2292 24.4307 35.3542 26.4585C34.4792 28.4863 33.2848 30.2571 31.7709 31.771C30.257 33.2849 28.4931 34.4793 26.4792 35.3543C24.4653 36.2293 22.3056 36.6668 20 36.6668ZM20 33.2502C20.7223 32.2502 21.3473 31.2085 21.875 30.1252C22.4028 29.0418 22.8334 27.8891 23.1667 26.6668H16.8334C17.1667 27.8891 17.5973 29.0418 18.125 30.1252C18.6528 31.2085 19.2778 32.2502 20 33.2502ZM15.6667 32.5835C15.1667 31.6668 14.7292 30.7154 14.3542 29.7293C13.9792 28.7432 13.6667 27.7224 13.4167 26.6668H8.50004C9.3056 28.0557 10.3125 29.2641 11.5209 30.2918C12.7292 31.3196 14.1112 32.0835 15.6667 32.5835ZM24.3334 32.5835C25.8889 32.0835 27.2709 31.3196 28.4792 30.2918C29.6875 29.2641 30.6945 28.0557 31.5 26.6668H26.5834C26.3334 27.7224 26.0209 28.7432 25.6459 29.7293C25.2709 30.7154 24.8334 31.6668 24.3334 32.5835ZM7.08337 23.3335H12.75C12.6667 22.7779 12.6042 22.2293 12.5625 21.6877C12.5209 21.146 12.5 20.5835 12.5 20.0002C12.5 19.4168 12.5209 18.8543 12.5625 18.3127C12.6042 17.771 12.6667 17.2224 12.75 16.6668H7.08337C6.94449 17.2224 6.84032 17.771 6.77087 18.3127C6.70143 18.8543 6.66671 19.4168 6.66671 20.0002C6.66671 20.5835 6.70143 21.146 6.77087 21.6877C6.84032 22.2293 6.94449 22.7779 7.08337 23.3335ZM16.0834 23.3335H23.9167C24 22.7779 24.0625 22.2293 24.1042 21.6877C24.1459 21.146 24.1667 20.5835 24.1667 20.0002C24.1667 19.4168 24.1459 18.8543 24.1042 18.3127C24.0625 17.771 24 17.2224 23.9167 16.6668H16.0834C16 17.2224 15.9375 17.771 15.8959 18.3127C15.8542 18.8543 15.8334 19.4168 15.8334 20.0002C15.8334 20.5835 15.8542 21.146 15.8959 21.6877C15.9375 22.2293 16 22.7779 16.0834 23.3335ZM27.25 23.3335H32.9167C33.0556 22.7779 33.1598 22.2293 33.2292 21.6877C33.2987 21.146 33.3334 20.5835 33.3334 20.0002C33.3334 19.4168 33.2987 18.8543 33.2292 18.3127C33.1598 17.771 33.0556 17.2224 32.9167 16.6668H27.25C27.3334 17.2224 27.3959 17.771 27.4375 18.3127C27.4792 18.8543 27.5 19.4168 27.5 20.0002C27.5 20.5835 27.4792 21.146 27.4375 21.6877C27.3959 22.2293 27.3334 22.7779 27.25 23.3335ZM26.5834 13.3335H31.5C30.6945 11.9446 29.6875 10.7363 28.4792 9.7085C27.2709 8.68072 25.8889 7.91683 24.3334 7.41683C24.8334 8.3335 25.2709 9.28488 25.6459 10.271C26.0209 11.2571 26.3334 12.2779 26.5834 13.3335ZM16.8334 13.3335H23.1667C22.8334 12.1113 22.4028 10.9585 21.875 9.87516C21.3473 8.79183 20.7223 7.75016 20 6.75016C19.2778 7.75016 18.6528 8.79183 18.125 9.87516C17.5973 10.9585 17.1667 12.1113 16.8334 13.3335ZM8.50004 13.3335H13.4167C13.6667 12.2779 13.9792 11.2571 14.3542 10.271C14.7292 9.28488 15.1667 8.3335 15.6667 7.41683C14.1112 7.91683 12.7292 8.68072 11.5209 9.7085C10.3125 10.7363 9.3056 11.9446 8.50004 13.3335Z" fill="#44474F"/>
<line x1="57" y1="19" x2="135" y2="19" stroke="#44474F" stroke-width="2" stroke-linecap="round" stroke-dasharray="1 8"/>
<path d="M160.333 35.0002C159.417 35.0002 158.632 34.6738 157.979 34.021C157.326 33.3682 157 32.5835 157 31.6668V25.0002C157 24.0835 157.326 23.2988 157.979 22.646C158.632 21.9932 159.417 21.6668 160.333 21.6668H177V15.0002H180.333V21.6668H183.667C184.583 21.6668 185.368 21.9932 186.021 22.646C186.674 23.2988 187 24.0835 187 25.0002V31.6668C187 32.5835 186.674 33.3682 186.021 34.021C185.368 34.6738 184.583 35.0002 183.667 35.0002H160.333ZM160.333 31.6668H183.667V25.0002H160.333V31.6668ZM163.667 30.0002C164.139 30.0002 164.535 29.8404 164.854 29.521C165.174 29.2016 165.333 28.8057 165.333 28.3335C165.333 27.8613 165.174 27.4654 164.854 27.146C164.535 26.8266 164.139 26.6668 163.667 26.6668C163.194 26.6668 162.799 26.8266 162.479 27.146C162.16 27.4654 162 27.8613 162 28.3335C162 28.8057 162.16 29.2016 162.479 29.521C162.799 29.8404 163.194 30.0002 163.667 30.0002ZM169.5 30.0002C169.972 30.0002 170.368 29.8404 170.688 29.521C171.007 29.2016 171.167 28.8057 171.167 28.3335C171.167 27.8613 171.007 27.4654 170.688 27.146C170.368 26.8266 169.972 26.6668 169.5 26.6668C169.028 26.6668 168.632 26.8266 168.312 27.146C167.993 27.4654 167.833 27.8613 167.833 28.3335C167.833 28.8057 167.993 29.2016 168.312 29.521C168.632 29.8404 169.028 30.0002 169.5 30.0002ZM175.333 30.0002C175.806 30.0002 176.201 29.8404 176.521 29.521C176.84 29.2016 177 28.8057 177 28.3335C177 27.8613 176.84 27.4654 176.521 27.146C176.201 26.8266 175.806 26.6668 175.333 26.6668C174.861 26.6668 174.465 26.8266 174.146 27.146C173.826 27.4654 173.667 27.8613 173.667 28.3335C173.667 28.8057 173.826 29.2016 174.146 29.521C174.465 29.8404 174.861 30.0002 175.333 30.0002ZM175.75 13.7502L173.333 11.3335C174.056 10.6668 174.861 10.1391 175.75 9.75016C176.639 9.36127 177.611 9.16683 178.667 9.16683C179.722 9.16683 180.694 9.36127 181.583 9.75016C182.472 10.1391 183.278 10.6668 184 11.3335L181.583 13.7502C181.194 13.3613 180.757 13.0557 180.271 12.8335C179.785 12.6113 179.25 12.5002 178.667 12.5002C178.083 12.5002 177.549 12.6113 177.062 12.8335C176.576 13.0557 176.139 13.3613 175.75 13.7502ZM171.583 9.5835L169.25 7.25016C170.472 6.02794 171.889 5.06961 173.5 4.37516C175.111 3.68072 176.833 3.3335 178.667 3.3335C180.5 3.3335 182.222 3.68072 183.833 4.37516C185.444 5.06961 186.861 6.02794 188.083 7.25016L185.75 9.5835C184.833 8.66683 183.771 7.95155 182.562 7.43766C181.354 6.92377 180.056 6.66683 178.667 6.66683C177.278 6.66683 175.979 6.92377 174.771 7.43766C173.562 7.95155 172.5 8.66683 171.583 9.5835Z" fill="#44474F"/>
</svg>
