<svg width="192" height="40" viewBox="0 0 192 40" fill="none" xmlns="http://www.w3.org/2000/svg">
<path d="M20 36.6668C17.7223 36.6668 15.5695 36.2293 13.5417 35.3543C11.5139 34.4793 9.7431 33.2849 8.22921 31.771C6.71532 30.2571 5.52087 28.4863 4.64587 26.4585C3.77087 24.4307 3.33337 22.2779 3.33337 20.0002C3.33337 17.6946 3.77087 15.5349 4.64587 13.521C5.52087 11.5071 6.71532 9.74322 8.22921 8.22933C9.7431 6.71544 11.5139 5.521 13.5417 4.646C15.5695 3.771 17.7223 3.3335 20 3.3335C22.3056 3.3335 24.4653 3.771 26.4792 4.646C28.4931 5.521 30.257 6.71544 31.7709 8.22933C33.2848 9.74322 34.4792 11.5071 35.3542 13.521C36.2292 15.5349 36.6667 17.6946 36.6667 20.0002C36.6667 22.2779 36.2292 24.4307 35.3542 26.4585C34.4792 28.4863 33.2848 30.2571 31.7709 31.771C30.257 33.2849 28.4931 34.4793 26.4792 35.3543C24.4653 36.2293 22.3056 36.6668 20 36.6668ZM20 33.2502C20.7223 32.2502 21.3473 31.2085 21.875 30.1252C22.4028 29.0418 22.8334 27.8891 23.1667 26.6668H16.8334C17.1667 27.8891 17.5973 29.0418 18.125 30.1252C18.6528 31.2085 19.2778 32.2502 20 33.2502ZM15.6667 32.5835C15.1667 31.6668 14.7292 30.7154 14.3542 29.7293C13.9792 28.7432 13.6667 27.7224 13.4167 26.6668H8.50004C9.3056 28.0557 10.3125 29.2641 11.5209 30.2918C12.7292 31.3196 14.1112 32.0835 15.6667 32.5835ZM24.3334 32.5835C25.8889 32.0835 27.2709 31.3196 28.4792 30.2918C29.6875 29.2641 30.6945 28.0557 31.5 26.6668H26.5834C26.3334 27.7224 26.0209 28.7432 25.6459 29.7293C25.2709 30.7154 24.8334 31.6668 24.3334 32.5835ZM7.08337 23.3335H12.75C12.6667 22.7779 12.6042 22.2293 12.5625 21.6877C12.5209 21.146 12.5 20.5835 12.5 20.0002C12.5 19.4168 12.5209 18.8543 12.5625 18.3127C12.6042 17.771 12.6667 17.2224 12.75 16.6668H7.08337C6.94449 17.2224 6.84032 17.771 6.77087 18.3127C6.70143 18.8543 6.66671 19.4168 6.66671 20.0002C6.66671 20.5835 6.70143 21.146 6.77087 21.6877C6.84032 22.2293 6.94449 22.7779 7.08337 23.3335ZM16.0834 23.3335H23.9167C24 22.7779 24.0625 22.2293 24.1042 21.6877C24.1459 21.146 24.1667 20.5835 24.1667 20.0002C24.1667 19.4168 24.1459 18.8543 24.1042 18.3127C24.0625 17.771 24 17.2224 23.9167 16.6668H16.0834C16 17.2224 15.9375 17.771 15.8959 18.3127C15.8542 18.8543 15.8334 19.4168 15.8334 20.0002C15.8334 20.5835 15.8542 21.146 15.8959 21.6877C15.9375 22.2293 16 22.7779 16.0834 23.3335ZM27.25 23.3335H32.9167C33.0556 22.7779 33.1598 22.2293 33.2292 21.6877C33.2987 21.146 33.3334 20.5835 33.3334 20.0002C33.3334 19.4168 33.2987 18.8543 33.2292 18.3127C33.1598 17.771 33.0556 17.2224 32.9167 16.6668H27.25C27.3334 17.2224 27.3959 17.771 27.4375 18.3127C27.4792 18.8543 27.5 19.4168 27.5 20.0002C27.5 20.5835 27.4792 21.146 27.4375 21.6877C27.3959 22.2293 27.3334 22.7779 27.25 23.3335ZM26.5834 13.3335H31.5C30.6945 11.9446 29.6875 10.7363 28.4792 9.7085C27.2709 8.68072 25.8889 7.91683 24.3334 7.41683C24.8334 8.3335 25.2709 9.28488 25.6459 10.271C26.0209 11.2571 26.3334 12.2779 26.5834 13.3335ZM16.8334 13.3335H23.1667C22.8334 12.1113 22.4028 10.9585 21.875 9.87516C21.3473 8.79183 20.7223 7.75016 20 6.75016C19.2778 7.75016 18.6528 8.79183 18.125 9.87516C17.5973 10.9585 17.1667 12.1113 16.8334 13.3335ZM8.50004 13.3335H13.4167C13.6667 12.2779 13.9792 11.2571 14.3542 10.271C14.7292 9.28488 15.1667 8.3335 15.6667 7.41683C14.1112 7.91683 12.7292 8.68072 11.5209 9.7085C10.3125 10.7363 9.3056 11.9446 8.50004 13.3335Z" fill="#44474F"/>
<line x1="57" y1="19" x2="135" y2="19" stroke="#44474F" stroke-width="2" stroke-linecap="round" stroke-dasharray="1 8"/>
<path d="M163.667 38.3332C162.75 38.3332 161.965 38.0068 161.313 37.354C160.66 36.7012 160.333 35.9165 160.333 34.9998V4.99984C160.333 4.08317 160.66 3.29845 161.313 2.64567C161.965 1.99289 162.75 1.6665 163.667 1.6665H180.333C181.25 1.6665 182.035 1.99289 182.688 2.64567C183.34 3.29845 183.667 4.08317 183.667 4.99984V34.9998C183.667 35.9165 183.34 36.7012 182.688 37.354C182.035 38.0068 181.25 38.3332 180.333 38.3332H163.667ZM163.667 29.9998V34.9998H180.333V29.9998H163.667ZM172 34.1665C172.472 34.1665 172.868 34.0068 173.188 33.6873C173.507 33.3679 173.667 32.9721 173.667 32.4998C173.667 32.0276 173.507 31.6318 173.188 31.3123C172.868 30.9929 172.472 30.8332 172 30.8332C171.528 30.8332 171.132 30.9929 170.813 31.3123C170.493 31.6318 170.333 32.0276 170.333 32.4998C170.333 32.9721 170.493 33.3679 170.813 33.6873C171.132 34.0068 171.528 34.1665 172 34.1665ZM163.667 26.6665H180.333V9.99984H163.667V26.6665ZM163.667 6.6665H180.333V4.99984H163.667V6.6665Z" fill="#44474F"/>
</svg>
