<svg width="150" height="43" viewBox="0 0 150 43" fill="none" xmlns="http://www.w3.org/2000/svg">
<g clip-path="url(#clip0_1_170)">
<path d="M48.6676 8.83081C45.15 8.83081 42.5549 10.2452 41.1282 12.8403V9.35967H35.6305V34.3023H41.1282V21.0438C41.1282 16.5424 42.6533 13.3077 46.9088 13.3077C51.1643 13.3077 51.6194 16.6039 51.6194 19.9861V34.3146H57.1171V18.6578C57.1171 12.7173 54.6696 8.83081 48.6553 8.83081H48.6676Z" fill="white"/>
<path d="M82.7976 9.37193H76.193L66.981 19.3834V0.70105H61.4833V34.3022H66.981V26.3324L69.6253 23.5036L77.4352 34.3022H83.8677L73.2781 19.6171L82.7976 9.37193Z" fill="white"/>
<path d="M96.1791 19.4326L92.6492 18.7316C90.4723 18.3134 89.3162 17.4402 89.3162 15.7675C89.3162 14.0948 91.53 13.0371 93.9406 13.0371C96.7202 13.0371 98.7988 13.9226 99.4014 16.1857H104.579C103.559 11.1922 99.1186 8.83081 94.2604 8.83081C88.898 8.83081 84.1259 11.6596 84.1259 16.0381C84.1259 20.4166 87.4098 22.4336 91.6161 23.3192L95.3673 24.0571C97.8149 24.5737 99.672 25.4469 99.672 27.4886C99.672 29.5302 97.5935 30.7355 94.6786 30.7355C91.3947 30.7355 89.5868 29.3211 89.0948 26.726H83.7324C84.335 31.3997 88.406 34.9295 94.5064 34.9295C100.152 34.9295 105.047 32.0515 105.047 26.8613C105.047 21.9909 101.209 20.4166 96.1668 19.4449L96.1791 19.4326Z" fill="white"/>
<path d="M116.989 27.2548L111.356 9.35962H105.33L114.369 34.1669L114.087 34.7696C112.98 38.0166 111.959 38.201 109.561 38.201H107.482V42.4196H109.954C115.55 42.4196 117.174 40.6978 119.535 34.2653L128.28 9.37192H122.647L117.014 27.2671L116.989 27.2548Z" fill="white"/>
<path d="M141.12 19.4326L137.59 18.7316C135.413 18.3134 134.257 17.4402 134.257 15.7675C134.257 14.0948 136.471 13.0371 138.882 13.0371C141.661 13.0371 143.74 13.9226 144.342 16.1857H149.52C148.5 11.1922 144.06 8.83081 139.214 8.83081C133.851 8.83081 129.079 11.6596 129.079 16.0381C129.079 20.4166 132.363 22.4336 136.569 23.3192L140.321 24.0571C142.768 24.5737 144.625 25.4469 144.625 27.4886C144.625 29.5302 142.547 30.7355 139.632 30.7355C136.36 30.7355 134.54 29.3211 134.048 26.726H128.686C129.288 31.3997 133.359 34.9295 139.46 34.9295C145.105 34.9295 150.012 32.0515 150.012 26.8613C150.012 21.9909 146.175 20.4166 141.132 19.4449L141.12 19.4326Z" fill="white"/>
<path d="M5.87898 0.70105H0V34.3022H22.7534V29.3457H5.87898V0.70105Z" fill="white"/>
<path d="M28.6323 0C26.8244 0 25.3608 1.47589 25.3608 3.28386C25.3608 5.09183 26.8244 6.56773 28.6323 6.55543C30.4403 6.55543 31.9039 5.07953 31.9039 3.27156C31.9039 1.46359 30.4403 0 28.6323 0Z" fill="white"/>
<path d="M31.375 9.37195H25.9019V34.3145H31.375V9.37195Z" fill="white"/>
</g>
<defs>
<clipPath id="clip0_1_170">
<rect width="150" height="42.4196" fill="white"/>
</clipPath>
</defs>
</svg>
