<svg width="320" height="221" viewBox="0 0 320 221" fill="none" xmlns="http://www.w3.org/2000/svg">
<g clip-path="url(#clip0_1291_62615)">
<path d="M152.697 84.2244H128.377C126.256 84.2244 124.537 85.9436 124.537 88.0644V190.384C124.537 192.505 126.256 194.224 128.377 194.224H152.697C154.818 194.224 156.537 192.505 156.537 190.384V88.0644C156.537 85.9436 154.818 84.2244 152.697 84.2244Z" fill="#242424"/>
<path d="M150.037 84.758V180.918C150.037 181.978 149.177 182.838 148.117 182.838H132.957C131.897 182.838 131.037 181.978 131.037 180.918V84.758C131.037 83.6976 131.897 82.838 132.957 82.838H148.117C149.177 82.838 150.037 83.6976 150.037 84.758Z" fill="#424242"/>
<g opacity="0.9">
<path d="M147.537 146.504V97.7037C147.537 97.0409 147 96.5037 146.337 96.5037H134.737C134.074 96.5037 133.537 97.0409 133.537 97.7037V146.504H147.537Z" fill="#A7A7A7"/>
<path d="M147.537 146.504V97.7037C147.537 97.0409 147 96.5037 146.337 96.5037H134.737C134.074 96.5037 133.537 97.0409 133.537 97.7037V146.504H147.537Z" fill="black" fill-opacity="0.2"/>
</g>
<path d="M146.337 160.303C147 160.303 147.537 159.766 147.537 159.103V146.303H133.537V159.103C133.537 159.766 134.074 160.303 134.737 160.303H146.337Z" fill="#2A2A2A"/>
<path d="M140.537 150.749C139.121 150.749 137.976 151.894 137.976 153.303C137.976 154.713 139.121 155.858 140.537 155.858C141.953 155.858 143.098 154.713 143.098 153.303C143.098 151.894 141.953 150.749 140.537 150.749Z" fill="#D7D7D7" stroke="#D1D1D1" stroke-width="0.891" stroke-linecap="square"/>
<path d="M146.337 181.103C147 181.103 147.537 180.566 147.537 179.903V168.303C147.537 167.641 147 167.103 146.337 167.103H134.737C134.074 167.103 133.537 167.641 133.537 168.303V179.903C133.537 180.566 134.074 181.103 134.737 181.103H146.337Z" fill="#5D5D5D"/>
<g filter="url(#filter0_i_1291_62615)">
<path fill-rule="evenodd" clip-rule="evenodd" d="M136.654 105.137V100.726H144.421V105.137H143.94V106.792H141.979V107.894H139.095V106.792H137.135V105.137H136.654Z" fill="#292929"/>
</g>
<mask id="mask0_1291_62615" style="mask-type:luminance" maskUnits="userSpaceOnUse" x="136" y="100" width="9" height="8">
<path fill-rule="evenodd" clip-rule="evenodd" d="M136.654 105.137V100.726H144.421V105.137H143.94V106.792H141.979V107.894H139.095V106.792H137.135V105.137H136.654Z" fill="white"/>
</mask>
<g mask="url(#mask0_1291_62615)">
<path d="M136.654 100.726V100.126H136.054V100.726H136.654ZM136.654 105.137H136.054V105.737H136.654V105.137ZM144.421 100.726H145.021V100.126H144.421V100.726ZM144.421 105.137V105.737H145.021V105.137H144.421ZM143.94 105.137V104.537H143.34V105.137H143.94ZM143.94 106.792V107.392H144.54V106.792H143.94ZM141.979 106.792V106.192H141.379V106.792H141.979ZM141.979 107.894V108.494H142.579V107.894H141.979ZM139.095 107.894H138.495V108.494H139.095V107.894ZM139.095 106.792H139.695V106.192H139.095V106.792ZM137.135 106.792H136.535V107.392H137.135V106.792ZM137.135 105.137H137.735V104.537H137.135V105.137ZM136.054 100.726V105.137H137.254V100.726H136.054ZM144.421 100.126H136.654V101.326H144.421V100.126ZM145.021 105.137V100.726H143.821V105.137H145.021ZM143.94 105.737H144.421V104.537H143.94V105.737ZM144.54 106.792V105.137H143.34V106.792H144.54ZM141.979 107.392H143.94V106.192H141.979V107.392ZM141.379 106.792V107.894H142.579V106.792H141.379ZM141.979 107.294H139.095V108.494H141.979V107.294ZM139.695 107.894V106.792H138.495V107.894H139.695ZM137.135 107.392H139.095V106.192H137.135V107.392ZM136.535 105.137V106.792H137.735V105.137H136.535ZM136.654 105.737H137.135V104.537H136.654V105.737Z" fill="#333333"/>
</g>
<g filter="url(#filter1_i_1291_62615)">
<path fill-rule="evenodd" clip-rule="evenodd" d="M136.654 115.441V111.03H144.421V115.441H143.94V117.095H141.979V118.198H139.095V117.095H137.135V115.441H136.654Z" fill="#292929"/>
</g>
<mask id="mask1_1291_62615" style="mask-type:luminance" maskUnits="userSpaceOnUse" x="136" y="111" width="9" height="8">
<path fill-rule="evenodd" clip-rule="evenodd" d="M136.654 115.441V111.03H144.421V115.441H143.94V117.095H141.979V118.198H139.095V117.095H137.135V115.441H136.654Z" fill="white"/>
</mask>
<g mask="url(#mask1_1291_62615)">
<path d="M136.654 111.03V110.43H136.054V111.03H136.654ZM136.654 115.441H136.054V116.041H136.654V115.441ZM144.421 111.03H145.021V110.43H144.421V111.03ZM144.421 115.441V116.041H145.021V115.441H144.421ZM143.94 115.441V114.841H143.34V115.441H143.94ZM143.94 117.095V117.695H144.54V117.095H143.94ZM141.979 117.095V116.495H141.379V117.095H141.979ZM141.979 118.198V118.798H142.579V118.198H141.979ZM139.095 118.198H138.495V118.798H139.095V118.198ZM139.095 117.095H139.695V116.495H139.095V117.095ZM137.135 117.095H136.535V117.695H137.135V117.095ZM137.135 115.441H137.735V114.841H137.135V115.441ZM136.054 111.03V115.441H137.254V111.03H136.054ZM144.421 110.43H136.654V111.63H144.421V110.43ZM145.021 115.441V111.03H143.821V115.441H145.021ZM143.94 116.041H144.421V114.841H143.94V116.041ZM144.54 117.095V115.441H143.34V117.095H144.54ZM141.979 117.695H143.94V116.495H141.979V117.695ZM141.379 117.095V118.198H142.579V117.095H141.379ZM141.979 117.598H139.095V118.798H141.979V117.598ZM139.695 118.198V117.095H138.495V118.198H139.695ZM137.135 117.695H139.095V116.495H137.135V117.695ZM136.535 115.441V117.095H137.735V115.441H136.535ZM136.654 116.041H137.135V114.841H136.654V116.041Z" fill="#333333"/>
</g>
<g filter="url(#filter2_i_1291_62615)">
<path fill-rule="evenodd" clip-rule="evenodd" d="M136.654 125.745V121.334H144.421V125.745H143.94V127.399H141.979V128.502H139.095V127.399H137.135V125.745H136.654Z" fill="#292929"/>
</g>
<mask id="mask2_1291_62615" style="mask-type:luminance" maskUnits="userSpaceOnUse" x="136" y="121" width="9" height="8">
<path fill-rule="evenodd" clip-rule="evenodd" d="M136.654 125.745V121.334H144.421V125.745H143.94V127.399H141.979V128.502H139.095V127.399H137.135V125.745H136.654Z" fill="white"/>
</mask>
<g mask="url(#mask2_1291_62615)">
<path d="M136.654 121.334V120.734H136.054V121.334H136.654ZM136.654 125.745H136.054V126.345H136.654V125.745ZM144.421 121.334H145.021V120.734H144.421V121.334ZM144.421 125.745V126.345H145.021V125.745H144.421ZM143.94 125.745V125.145H143.34V125.745H143.94ZM143.94 127.399V127.999H144.54V127.399H143.94ZM141.979 127.399V126.799H141.379V127.399H141.979ZM141.979 128.502V129.102H142.579V128.502H141.979ZM139.095 128.502H138.495V129.102H139.095V128.502ZM139.095 127.399H139.695V126.799H139.095V127.399ZM137.135 127.399H136.535V127.999H137.135V127.399ZM137.135 125.745H137.735V125.145H137.135V125.745ZM136.054 121.334V125.745H137.254V121.334H136.054ZM144.421 120.734H136.654V121.934H144.421V120.734ZM145.021 125.745V121.334H143.821V125.745H145.021ZM143.94 126.345H144.421V125.145H143.94V126.345ZM144.54 127.399V125.745H143.34V127.399H144.54ZM141.979 127.999H143.94V126.799H141.979V127.999ZM141.379 127.399V128.502H142.579V127.399H141.379ZM141.979 127.902H139.095V129.102H141.979V127.902ZM139.695 128.502V127.399H138.495V128.502H139.695ZM137.135 127.999H139.095V126.799H137.135V127.999ZM136.535 125.745V127.399H137.735V125.745H136.535ZM136.654 126.345H137.135V125.145H136.654V126.345Z" fill="#333333"/>
</g>
<g filter="url(#filter3_d_1291_62615)">
<path d="M32.1642 35.8064H4.62082C3.43982 35.8064 2.48242 36.7638 2.48242 37.9448V82.3739C2.48242 83.5549 3.43982 84.5123 4.62082 84.5123H32.1642C33.3452 84.5123 34.3026 83.5549 34.3026 82.3739V37.9448C34.3026 36.7638 33.3452 35.8064 32.1642 35.8064Z" fill="url(#paint0_linear_1291_62615)"/>
<path d="M32.1642 35.8064H4.62082C3.43982 35.8064 2.48242 36.7638 2.48242 37.9448V82.3739C2.48242 83.5549 3.43982 84.5123 4.62082 84.5123H32.1642C33.3452 84.5123 34.3026 83.5549 34.3026 82.3739V37.9448C34.3026 36.7638 33.3452 35.8064 32.1642 35.8064Z" stroke="#333333" stroke-linecap="square"/>
</g>
<g filter="url(#filter4_d_1291_62615)">
<path fill-rule="evenodd" clip-rule="evenodd" d="M15.0938 65.3806H16.4413V68.9008H15.0938V65.3806ZM20.4834 65.3806H21.8309V68.9008H20.4834V65.3806ZM19.4734 71.2H17.4521V72.7061C17.4521 72.7061 17.557 73.2296 18.4627 73.2296C19.3684 73.2296 19.4734 72.7061 19.4734 72.7061V71.2Z" fill="#575757"/>
</g>
<g filter="url(#filter5_d_1291_62615)">
<path fill-rule="evenodd" clip-rule="evenodd" d="M14.9854 47.4197H16.3329V50.9399H14.9854V47.4197ZM20.375 47.4197H21.7225V50.9399H20.375V47.4197ZM19.365 53.239H17.3438V54.7452C17.3438 54.7452 17.4487 55.2687 18.3544 55.2687C19.2601 55.2687 19.365 54.7452 19.365 54.7452V53.239Z" fill="#575757"/>
</g>
<path d="M139.637 173.6H139.137V174.1V198.534C139.137 203.284 135.287 207.134 130.537 207.134H28.4605C23.7075 207.134 19.8605 203.299 19.8605 198.553V94.1623V94.1564L19.86 94.1388C19.8593 94.1235 19.8574 94.099 19.8518 94.0693C19.8394 94.0036 19.8115 93.929 19.7581 93.859C19.6632 93.7346 19.5414 93.6953 19.514 93.6864C19.4735 93.6734 19.4405 93.6686 19.4303 93.6672C19.4161 93.6652 19.4048 93.6642 19.3992 93.6638C19.388 93.6629 19.3791 93.6626 19.3766 93.6625L19.3679 93.6623L19.3484 93.6621L19.2484 93.662L18.4605 93.6619L17.6727 93.662L17.5727 93.6621L17.5532 93.6623L17.5445 93.6625C17.542 93.6626 17.5331 93.6629 17.5219 93.6638C17.5163 93.6642 17.505 93.6652 17.4908 93.6672C17.4806 93.6686 17.4476 93.6734 17.4071 93.6864C17.3797 93.6953 17.2579 93.7346 17.163 93.859C17.1096 93.929 17.0817 94.0036 17.0693 94.0693C17.0636 94.099 17.0618 94.1235 17.0611 94.1388L17.0606 94.1564L17.0605 94.1623V198.553C17.0605 204.853 22.168 209.934 28.4605 209.934H130.537C136.833 209.934 141.937 204.83 141.937 198.534V174.1V173.6H141.437H139.637Z" fill="white"/>
<path d="M139.637 173.6H139.137V174.1V198.534C139.137 203.284 135.287 207.134 130.537 207.134H28.4605C23.7075 207.134 19.8605 203.299 19.8605 198.553V94.1623V94.1564L19.86 94.1388C19.8593 94.1235 19.8574 94.099 19.8518 94.0693C19.8394 94.0036 19.8115 93.929 19.7581 93.859C19.6632 93.7346 19.5414 93.6953 19.514 93.6864C19.4735 93.6734 19.4405 93.6686 19.4303 93.6672C19.4161 93.6652 19.4048 93.6642 19.3992 93.6638C19.388 93.6629 19.3791 93.6626 19.3766 93.6625L19.3679 93.6623L19.3484 93.6621L19.2484 93.662L18.4605 93.6619L17.6727 93.662L17.5727 93.6621L17.5532 93.6623L17.5445 93.6625C17.542 93.6626 17.5331 93.6629 17.5219 93.6638C17.5163 93.6642 17.505 93.6652 17.4908 93.6672C17.4806 93.6686 17.4476 93.6734 17.4071 93.6864C17.3797 93.6953 17.2579 93.7346 17.163 93.859C17.1096 93.929 17.0817 94.0036 17.0693 94.0693C17.0636 94.099 17.0618 94.1235 17.0611 94.1388L17.0606 94.1564L17.0605 94.1623V198.553C17.0605 204.853 22.168 209.934 28.4605 209.934H130.537C136.833 209.934 141.937 204.83 141.937 198.534V174.1V173.6H141.437H139.637Z" stroke="#A7A7A7"/>
<path d="M139.637 173.6H139.137V174.1V198.534C139.137 203.284 135.287 207.134 130.537 207.134H28.4605C23.7075 207.134 19.8605 203.299 19.8605 198.553V94.1623V94.1564L19.86 94.1388C19.8593 94.1235 19.8574 94.099 19.8518 94.0693C19.8394 94.0036 19.8115 93.929 19.7581 93.859C19.6632 93.7346 19.5414 93.6953 19.514 93.6864C19.4735 93.6734 19.4405 93.6686 19.4303 93.6672C19.4161 93.6652 19.4048 93.6642 19.3992 93.6638C19.388 93.6629 19.3791 93.6626 19.3766 93.6625L19.3679 93.6623L19.3484 93.6621L19.2484 93.662L18.4605 93.6619L17.6727 93.662L17.5727 93.6621L17.5532 93.6623L17.5445 93.6625C17.542 93.6626 17.5331 93.6629 17.5219 93.6638C17.5163 93.6642 17.505 93.6652 17.4908 93.6672C17.4806 93.6686 17.4476 93.6734 17.4071 93.6864C17.3797 93.6953 17.2579 93.7346 17.163 93.859C17.1096 93.929 17.0817 94.0036 17.0693 94.0693C17.0636 94.099 17.0618 94.1235 17.0611 94.1388L17.0606 94.1564L17.0605 94.1623V198.553C17.0605 204.853 22.168 209.934 28.4605 209.934H130.537C136.833 209.934 141.937 204.83 141.937 198.534V174.1V173.6H141.437H139.637Z" stroke="black" stroke-opacity="0.2"/>
<path d="M140.493 176.529C141.874 176.529 142.993 175.41 142.993 174.029C142.993 172.648 141.874 171.529 140.493 171.529C139.112 171.529 137.993 172.648 137.993 174.029C137.993 175.41 139.112 176.529 140.493 176.529Z" fill="white"/>
<path d="M140.493 176.529C141.874 176.529 142.993 175.41 142.993 174.029C142.993 172.648 141.874 171.529 140.493 171.529C139.112 171.529 137.993 172.648 137.993 174.029C137.993 175.41 139.112 176.529 140.493 176.529Z" stroke="#A7A7A7"/>
<path d="M140.493 176.529C141.874 176.529 142.993 175.41 142.993 174.029C142.993 172.648 141.874 171.529 140.493 171.529C139.112 171.529 137.993 172.648 137.993 174.029C137.993 175.41 139.112 176.529 140.493 176.529Z" stroke="black" stroke-opacity="0.2"/>
<g filter="url(#filter6_d_1291_62615)">
<path fill-rule="evenodd" clip-rule="evenodd" d="M5.01758 64.7534C5.01758 62.964 6.46818 61.5134 8.25758 61.5134H27.6652C29.4546 61.5134 30.9052 62.964 30.9052 64.7534V86.4146C30.9052 88.204 29.4546 89.6546 27.6652 89.6546H8.25758C6.46818 89.6546 5.01758 88.204 5.01758 86.4146V64.7534Z" fill="white"/>
</g>
<path fill-rule="evenodd" clip-rule="evenodd" d="M5.01758 64.7534C5.01758 62.964 6.46818 61.5134 8.25758 61.5134H27.6652C29.4546 61.5134 30.9052 62.964 30.9052 64.7534V86.4146C30.9052 88.204 29.4546 89.6546 27.6652 89.6546H8.25758C6.46818 89.6546 5.01758 88.204 5.01758 86.4146V64.7534Z" stroke="#979797" stroke-linecap="square"/>
<path d="M17.1472 88.6111C16.0057 88.6111 15.2986 89.8539 15.8817 90.8351L16.3727 91.6612C16.4505 91.7921 16.4959 91.9396 16.5053 92.0915L16.663 94.6389C16.6952 95.1588 17.1262 95.564 17.6471 95.564H19.1994C19.7223 95.564 20.1543 95.1558 20.1838 94.6337L20.3253 92.1344C20.335 91.9635 20.3903 91.7983 20.4854 91.656L20.9901 90.9014C21.6442 89.9233 20.9431 88.6111 19.7665 88.6111H17.1472Z" fill="white" stroke="#979797" stroke-linecap="square"/>
<g filter="url(#filter7_d_1291_62615)">
<path fill-rule="evenodd" clip-rule="evenodd" d="M50.0898 38.2099C50.0898 36.7336 51.2866 35.5369 52.7628 35.5369H79.2371C80.7133 35.5369 81.9101 36.7336 81.9101 38.2099V81.5698C81.9101 83.046 80.7133 84.2427 79.2371 84.2427H52.7628C51.2866 84.2427 50.0898 83.046 50.0898 81.5697V38.2099Z" fill="url(#paint1_linear_1291_62615)"/>
<path fill-rule="evenodd" clip-rule="evenodd" d="M50.0898 38.2099C50.0898 36.7336 51.2866 35.5369 52.7628 35.5369H79.2371C80.7133 35.5369 81.9101 36.7336 81.9101 38.2099V81.5698C81.9101 83.046 80.7133 84.2427 79.2371 84.2427H52.7628C51.2866 84.2427 50.0898 83.046 50.0898 81.5697V38.2099Z" stroke="#333333" stroke-linecap="square"/>
</g>
<path d="M70.8346 59.8505C70.8346 62.1712 68.9583 64.0513 66.6451 64.0513C64.332 64.0513 62.4556 62.1712 62.4556 59.8505C62.4556 57.5299 64.332 55.6497 66.6451 55.6497C68.9583 55.6497 70.8346 57.5299 70.8346 59.8505Z" fill="white" stroke="#26292A" stroke-width="0.54" stroke-linecap="square"/>
<path d="M68.0192 59.8896C68.0192 60.6301 67.4206 61.2286 66.6844 61.2286C65.9482 61.2286 65.3496 60.6301 65.3496 59.8896C65.3496 59.1492 65.9482 58.5507 66.6844 58.5507C67.4206 58.5507 68.0192 59.1492 68.0192 59.8896Z" fill="#D7D7D7" stroke="#D1D1D1" stroke-width="0.891" stroke-linecap="square"/>
<path d="M66.6934 60.0369C66.6934 60.0369 66.6934 98.4513 66.6934 107.024C66.6934 113.284 66.6934 144.204 66.6934 160.428C66.6934 165.951 71.1705 170.409 76.6934 170.409H130.531C136.054 170.409 140.531 165.932 140.531 160.409V153.303" stroke="black" stroke-width="2.2" stroke-linecap="round"/>
<path d="M301.166 175.108C322.27 154.005 322.27 119.789 301.166 98.6857C280.063 77.5822 245.847 77.5822 224.744 98.6857C203.64 119.789 203.64 154.005 224.744 175.108C245.847 196.212 280.063 196.212 301.166 175.108Z" fill="#DBDBDB"/>
<path d="M301.166 175.108C322.27 154.005 322.27 119.789 301.166 98.6857C280.063 77.5822 245.847 77.5822 224.744 98.6857C203.64 119.789 203.64 154.005 224.744 175.108C245.847 196.212 280.063 196.212 301.166 175.108Z" fill="#A7A7A7"/>
<mask id="mask3_1291_62615" style="mask-type:luminance" maskUnits="userSpaceOnUse" x="208" y="82" width="110" height="110">
<path d="M301.158 98.6784L301.157 98.6781C280.049 77.5701 245.827 77.5701 224.719 98.6781L224.718 98.6784C203.61 119.786 203.61 154.009 224.718 175.117L224.719 175.117C245.827 196.225 280.049 196.225 301.157 175.117L301.158 175.117C322.266 154.009 322.266 119.786 301.158 98.6784Z" fill="white" stroke="white"/>
</mask>
<g mask="url(#mask3_1291_62615)">
<path fill-rule="evenodd" clip-rule="evenodd" d="M314.069 60.537C316.802 60.537 319.019 62.7532 319.019 65.487V188.576C319.019 191.31 316.802 193.537 314.069 193.537H231.969C229.235 193.537 227.019 191.321 227.019 188.587V65.487C227.019 62.7532 229.235 60.537 231.969 60.537H314.069Z" fill="#E3E3E3"/>
<g filter="url(#filter8_i_1291_62615)">
<path fill-rule="evenodd" clip-rule="evenodd" d="M251.701 133.536H264.763V110.539H251.701V111.961H246.804V117.766H243.538V126.308H246.804V132.111H251.701V133.536Z" fill="#292929"/>
</g>
<mask id="mask4_1291_62615" style="mask-type:luminance" maskUnits="userSpaceOnUse" x="243" y="110" width="22" height="24">
<path fill-rule="evenodd" clip-rule="evenodd" d="M251.701 133.536H264.763V110.539H251.701V111.961H246.804V117.766H243.538V126.308H246.804V132.111H251.701V133.536Z" fill="white"/>
</mask>
<g mask="url(#mask4_1291_62615)">
<path d="M264.763 133.536H266.611V135.384H264.763V133.536ZM251.701 133.536V135.384H249.853V133.536H251.701ZM264.763 110.539V108.691H266.611V110.539H264.763ZM251.701 110.539H249.853V108.691H251.701V110.539ZM251.701 111.961H253.549V113.809H251.701V111.961ZM246.804 111.961H244.956V110.113H246.804V111.961ZM246.804 117.766H248.652V119.614H246.804V117.766ZM243.538 117.766H241.69V115.918H243.538V117.766ZM243.538 126.308V128.156H241.69V126.308H243.538ZM246.804 126.308V124.46H248.652V126.308H246.804ZM246.804 132.111V133.959H244.956V132.111H246.804ZM251.701 132.111V130.263H253.549V132.111H251.701ZM264.763 135.384H251.701V131.688H264.763V135.384ZM266.611 110.539V133.536H262.915V110.539H266.611ZM251.701 108.691H264.763V112.387H251.701V108.691ZM249.853 111.961V110.539H253.549V111.961H249.853ZM246.804 110.113H251.701V113.809H246.804V110.113ZM244.956 117.766V111.961H248.652V117.766H244.956ZM246.804 119.614H243.538V115.918H246.804V119.614ZM245.386 117.766V126.308H241.69V117.766H245.386ZM243.538 124.46H246.804V128.156H243.538V124.46ZM244.956 132.111V126.308H248.652V132.111H244.956ZM251.701 133.959H246.804V130.263H251.701V133.959ZM249.853 133.536V132.111H253.549V133.536H249.853Z" fill="#333333"/>
</g>
<mask id="mask5_1291_62615" style="mask-type:luminance" maskUnits="userSpaceOnUse" x="243" y="110" width="22" height="24">
<path fill-rule="evenodd" clip-rule="evenodd" d="M251.701 133.536H264.763V110.539H251.701V111.961H246.804V117.766H243.538V126.308H246.804V132.111H251.701V133.536Z" fill="white"/>
</mask>
<g mask="url(#mask5_1291_62615)">
<path d="M264.763 133.536H266.611V135.384H264.763V133.536ZM251.701 133.536V135.384H249.853V133.536H251.701ZM264.763 110.539V108.691H266.611V110.539H264.763ZM251.701 110.539H249.853V108.691H251.701V110.539ZM251.701 111.961H253.549V113.809H251.701V111.961ZM246.804 111.961H244.956V110.113H246.804V111.961ZM246.804 117.766H248.652V119.614H246.804V117.766ZM243.538 117.766H241.69V115.918H243.538V117.766ZM243.538 126.308V128.156H241.69V126.308H243.538ZM246.804 126.308V124.46H248.652V126.308H246.804ZM246.804 132.111V133.959H244.956V132.111H246.804ZM251.701 132.111V130.263H253.549V132.111H251.701ZM264.763 135.384H251.701V131.688H264.763V135.384ZM266.611 110.539V133.536H262.915V110.539H266.611ZM251.701 108.691H264.763V112.387H251.701V108.691ZM249.853 111.961V110.539H253.549V111.961H249.853ZM246.804 110.113H251.701V113.809H246.804V110.113ZM244.956 117.766V111.961H248.652V117.766H244.956ZM246.804 119.614H243.538V115.918H246.804V119.614ZM245.386 117.766V126.308H241.69V117.766H245.386ZM243.538 124.46H246.804V128.156H243.538V124.46ZM244.956 132.111V126.308H248.652V132.111H244.956ZM251.701 133.959H246.804V130.263H251.701V133.959ZM249.853 133.536V132.111H253.549V133.536H249.853Z" fill="#535353"/>
</g>
</g>
<path d="M263.019 191.037C293.119 191.037 317.519 166.637 317.519 136.537C317.519 106.437 293.119 82.037 263.019 82.037C232.92 82.037 208.519 106.437 208.519 136.537C208.519 166.637 232.92 191.037 263.019 191.037Z" stroke="#333333"/>
<path fill-rule="evenodd" clip-rule="evenodd" d="M152.273 152.116C145.652 148.993 141.008 145.597 138 141.537L140.5 140.037C143.141 143.601 146.875 146.59 153.317 149.628C159.734 152.655 167.763 155.186 176.913 156.9C195.213 160.328 220.465 159.128 243.5 153.507V156.16C220.113 161.867 195.089 163.07 176.466 159.582C167.155 157.837 158.918 155.25 152.273 152.116Z" fill="white"/>
<path fill-rule="evenodd" clip-rule="evenodd" d="M152.273 152.116C145.652 148.993 141.008 145.597 138 141.537L140.5 140.037C143.141 143.601 146.875 146.59 153.317 149.628C159.734 152.655 167.763 155.186 176.913 156.9C195.213 160.328 220.465 159.128 243.5 153.507V156.16C220.113 161.867 195.089 163.07 176.466 159.582C167.155 157.837 158.918 155.25 152.273 152.116Z" stroke="#A7A7A7"/>
<path fill-rule="evenodd" clip-rule="evenodd" d="M152.273 152.116C145.652 148.993 141.008 145.597 138 141.537L140.5 140.037C143.141 143.601 146.875 146.59 153.317 149.628C159.734 152.655 167.763 155.186 176.913 156.9C195.213 160.328 220.465 159.128 243.5 153.507V156.16C220.113 161.867 195.089 163.07 176.466 159.582C167.155 157.837 158.918 155.25 152.273 152.116Z" stroke="black" stroke-opacity="0.2"/>
<path fill-rule="evenodd" clip-rule="evenodd" d="M144.09 140.15V135.538H136.5V140.15H137.367L137.516 141.425C137.567 141.857 137.933 142.182 138.367 142.182H138.886V142.676C138.886 143.149 139.27 143.533 139.743 143.533H140.848C141.321 143.533 141.705 143.149 141.705 142.676V142.182H142.223C142.658 142.182 143.024 141.857 143.074 141.425L143.224 140.15H144.09Z" fill="white"/>
<path d="M144.09 135.538V135.038H144.59V135.538H144.09ZM144.09 140.15H144.59V140.65H144.09V140.15ZM136.5 135.538H136V135.038H136.5V135.538ZM136.5 140.15V140.65H136V140.15H136.5ZM137.367 140.15V139.65H137.811L137.863 140.092L137.367 140.15ZM138.886 142.182V141.682H139.386V142.182H138.886ZM141.705 142.182H141.205V141.682H141.705V142.182ZM143.224 140.15L142.727 140.092L142.779 139.65H143.224V140.15ZM144.59 135.538V140.15H143.59V135.538H144.59ZM136.5 135.038H144.09V136.038H136.5V135.038ZM136 140.15V135.538H137V140.15H136ZM137.367 140.65H136.5V139.65H137.367V140.65ZM137.02 141.483L136.87 140.208L137.863 140.092L138.013 141.367L137.02 141.483ZM138.367 142.682C137.679 142.682 137.1 142.167 137.02 141.483L138.013 141.367C138.034 141.547 138.186 141.682 138.367 141.682V142.682ZM138.886 142.682H138.367V141.682H138.886V142.682ZM139.386 142.182V142.676H138.386V142.182H139.386ZM139.386 142.676C139.386 142.873 139.546 143.033 139.743 143.033V144.033C138.994 144.033 138.386 143.425 138.386 142.676H139.386ZM139.743 143.033H140.848V144.033H139.743V143.033ZM140.848 143.033C141.045 143.033 141.205 142.873 141.205 142.676H142.205C142.205 143.425 141.597 144.033 140.848 144.033V143.033ZM141.205 142.676V142.182H142.205V142.676H141.205ZM142.223 142.682H141.705V141.682H142.223V142.682ZM143.571 141.483C143.491 142.167 142.911 142.682 142.223 142.682V141.682C142.404 141.682 142.557 141.547 142.578 141.367L143.571 141.483ZM143.72 140.208L143.571 141.483L142.578 141.367L142.727 140.092L143.72 140.208ZM144.09 140.65H143.224V139.65H144.09V140.65Z" fill="#666666"/>
<path fill-rule="evenodd" clip-rule="evenodd" d="M250.803 165.805C250.803 166.91 251.698 167.805 252.803 167.805H265.017C265.569 167.805 266.017 167.358 266.017 166.805V143.771C266.017 143.219 265.569 142.771 265.017 142.771H252.803C251.698 142.771 250.803 143.666 250.803 144.771V145.628L244.993 146.309C244.489 146.368 244.109 146.795 244.109 147.303V151.536H240.5C239.948 151.536 239.5 151.984 239.5 152.536V158.536C239.5 159.088 239.948 159.536 240.5 159.536H244.109V163.272C244.109 163.779 244.489 164.206 244.993 164.265L250.803 164.946V165.805Z" fill="white"/>
<mask id="mask6_1291_62615" style="mask-type:luminance" maskUnits="userSpaceOnUse" x="239" y="142" width="28" height="26">
<path fill-rule="evenodd" clip-rule="evenodd" d="M250.803 165.805C250.803 166.91 251.698 167.805 252.803 167.805H265.017C265.569 167.805 266.017 167.358 266.017 166.805V143.771C266.017 143.219 265.569 142.771 265.017 142.771H252.803C251.698 142.771 250.803 143.666 250.803 144.771V145.628L244.993 146.309C244.489 146.368 244.109 146.795 244.109 147.303V151.536H240.5C239.948 151.536 239.5 151.984 239.5 152.536V158.536C239.5 159.088 239.948 159.536 240.5 159.536H244.109V163.272C244.109 163.779 244.489 164.206 244.993 164.265L250.803 164.946V165.805Z" fill="white"/>
</mask>
<g mask="url(#mask6_1291_62615)">
<path d="M250.803 145.628H251.803V146.518L250.919 146.621L250.803 145.628ZM244.109 151.536H245.109V152.536H244.109V151.536ZM244.109 159.536V158.536H245.109V159.536H244.109ZM250.803 164.946L250.919 163.953L251.803 164.057V164.946H250.803ZM252.803 168.805C251.146 168.805 249.803 167.462 249.803 165.805H251.803C251.803 166.358 252.25 166.805 252.803 166.805V168.805ZM265.017 168.805H252.803V166.805H265.017V168.805ZM267.017 166.805C267.017 167.91 266.121 168.805 265.017 168.805V166.805H267.017ZM267.017 143.771V166.805H265.017V143.771H267.017ZM265.017 141.771C266.121 141.771 267.017 142.666 267.017 143.771H265.017V141.771ZM252.803 141.771H265.017V143.771H252.803V141.771ZM249.803 144.771C249.803 143.114 251.146 141.771 252.803 141.771V143.771C252.25 143.771 251.803 144.219 251.803 144.771H249.803ZM249.803 145.628V144.771H251.803V145.628H249.803ZM244.876 145.316L250.686 144.635L250.919 146.621L245.109 147.303L244.876 145.316ZM243.109 147.303C243.109 146.288 243.869 145.434 244.876 145.316L245.109 147.303H243.109ZM243.109 151.536V147.303H245.109V151.536H243.109ZM244.109 152.536H240.5V150.536H244.109V152.536ZM240.5 152.536H238.5C238.5 151.431 239.395 150.536 240.5 150.536V152.536ZM240.5 152.536V158.536H238.5V152.536H240.5ZM240.5 158.536V160.536C239.395 160.536 238.5 159.64 238.5 158.536H240.5ZM240.5 158.536H244.109V160.536H240.5V158.536ZM243.109 163.272V159.536H245.109V163.272H243.109ZM244.876 165.258C243.869 165.14 243.109 164.286 243.109 163.272H245.109L244.876 165.258ZM250.686 165.94L244.876 165.258L245.109 163.272L250.919 163.953L250.686 165.94ZM249.803 165.805V164.946H251.803V165.805H249.803Z" fill="#A7A7A7"/>
</g>
<mask id="mask7_1291_62615" style="mask-type:luminance" maskUnits="userSpaceOnUse" x="239" y="142" width="28" height="26">
<path fill-rule="evenodd" clip-rule="evenodd" d="M250.803 165.805C250.803 166.91 251.698 167.805 252.803 167.805H265.017C265.569 167.805 266.017 167.358 266.017 166.805V143.771C266.017 143.219 265.569 142.771 265.017 142.771H252.803C251.698 142.771 250.803 143.666 250.803 144.771V145.628L244.993 146.309C244.489 146.368 244.109 146.795 244.109 147.303V151.536H240.5C239.948 151.536 239.5 151.984 239.5 152.536V158.536C239.5 159.088 239.948 159.536 240.5 159.536H244.109V163.272C244.109 163.779 244.489 164.206 244.993 164.265L250.803 164.946V165.805Z" fill="white"/>
</mask>
<g mask="url(#mask7_1291_62615)">
<path d="M250.803 145.628H251.803V146.518L250.919 146.621L250.803 145.628ZM244.109 151.536H245.109V152.536H244.109V151.536ZM244.109 159.536V158.536H245.109V159.536H244.109ZM250.803 164.946L250.919 163.953L251.803 164.057V164.946H250.803ZM252.803 168.805C251.146 168.805 249.803 167.462 249.803 165.805H251.803C251.803 166.358 252.25 166.805 252.803 166.805V168.805ZM265.017 168.805H252.803V166.805H265.017V168.805ZM267.017 166.805C267.017 167.91 266.121 168.805 265.017 168.805V166.805H267.017ZM267.017 143.771V166.805H265.017V143.771H267.017ZM265.017 141.771C266.121 141.771 267.017 142.666 267.017 143.771H265.017V141.771ZM252.803 141.771H265.017V143.771H252.803V141.771ZM249.803 144.771C249.803 143.114 251.146 141.771 252.803 141.771V143.771C252.25 143.771 251.803 144.219 251.803 144.771H249.803ZM249.803 145.628V144.771H251.803V145.628H249.803ZM244.876 145.316L250.686 144.635L250.919 146.621L245.109 147.303L244.876 145.316ZM243.109 147.303C243.109 146.288 243.869 145.434 244.876 145.316L245.109 147.303H243.109ZM243.109 151.536V147.303H245.109V151.536H243.109ZM244.109 152.536H240.5V150.536H244.109V152.536ZM240.5 152.536H238.5C238.5 151.431 239.395 150.536 240.5 150.536V152.536ZM240.5 152.536V158.536H238.5V152.536H240.5ZM240.5 158.536V160.536C239.395 160.536 238.5 159.64 238.5 158.536H240.5ZM240.5 158.536H244.109V160.536H240.5V158.536ZM243.109 163.272V159.536H245.109V163.272H243.109ZM244.876 165.258C243.869 165.14 243.109 164.286 243.109 163.272H245.109L244.876 165.258ZM250.686 165.94L244.876 165.258L245.109 163.272L250.919 163.953L250.686 165.94ZM249.803 165.805V164.946H251.803V165.805H249.803Z" fill="black" fill-opacity="0.2"/>
</g>
<path d="M251.046 152.535V158.265" stroke="#A7A7A7" stroke-width="0.8" stroke-linecap="round"/>
<path d="M251.046 152.535V158.265" stroke="black" stroke-opacity="0.2" stroke-width="0.8" stroke-linecap="round"/>
<path d="M249.123 152.535V158.265" stroke="#A7A7A7" stroke-width="0.8" stroke-linecap="round"/>
<path d="M249.123 152.535V158.265" stroke="black" stroke-opacity="0.2" stroke-width="0.8" stroke-linecap="round"/>
<path d="M87.999 16.6341V15.5001H89.343V13.5121L90.673 13.2881V15.5001H92.941V16.6341H90.673V20.1341C90.673 21.5341 91.121 21.8421 92.073 21.8561C92.451 21.8701 92.773 21.7441 92.927 21.6741L93.053 22.9201C92.829 23.0041 92.437 23.0881 92.045 23.0881C89.777 23.0881 89.343 21.6881 89.343 20.2181V16.6341H87.999Z" fill="black"/>
<path d="M87.0045 19.756H81.5445C81.6425 21.268 82.4685 21.912 83.7005 21.912C84.9045 21.94 85.3945 21.464 85.5485 20.736L86.9485 20.904C86.7805 22.08 85.8565 23.088 83.7145 23.088C81.5025 23.088 80.1445 21.786 80.1445 19.21C80.1445 16.634 81.5025 15.332 83.6725 15.332C85.9265 15.332 87.0045 16.732 87.0045 19.196V19.756ZM83.6865 16.494C82.4825 16.494 81.6565 17.152 81.5585 18.622H85.5625C85.5345 17.25 84.9185 16.48 83.6865 16.494Z" fill="black"/>
<path d="M73.3415 15.5L73.5095 16.55C73.9995 15.822 74.8815 15.332 75.9035 15.332C77.5415 15.332 78.7595 16.214 78.7595 17.838V22.92H77.4155V18.076C77.4155 17.096 76.7295 16.578 75.7075 16.578C74.4895 16.578 73.6495 17.558 73.5515 18.328V22.92H72.2215V17.334L72.1235 15.5H73.3415Z" fill="black"/>
<path d="M70.0787 16.62C68.8047 16.62 67.8947 17.53 67.7547 18.37V22.92H66.4247V17.334L66.3267 15.5H67.5447L67.7267 16.634C68.1467 15.878 69.0287 15.332 70.0367 15.332C70.4147 15.332 70.7927 15.388 71.0307 15.486L70.9047 16.788C70.7787 16.718 70.4707 16.62 70.0787 16.62Z" fill="black"/>
<path d="M64.8424 19.756H59.3824C59.4804 21.268 60.3064 21.912 61.5384 21.912C62.7424 21.94 63.2324 21.464 63.3864 20.736L64.7864 20.904C64.6184 22.08 63.6944 23.088 61.5524 23.088C59.3404 23.088 57.9824 21.786 57.9824 19.21C57.9824 16.634 59.3404 15.332 61.5104 15.332C63.7644 15.332 64.8424 16.732 64.8424 19.196V19.756ZM61.5244 16.494C60.3204 16.494 59.4944 17.152 59.3964 18.622H63.4004C63.3724 17.25 62.7564 16.48 61.5244 16.494Z" fill="black"/>
<path d="M51.8096 16.6341V15.5001H53.1536V13.5121L54.4836 13.2881V15.5001H56.7516V16.6341H54.4836V20.1341C54.4836 21.5341 54.9316 21.8421 55.8836 21.8561C56.2616 21.8701 56.5836 21.7441 56.7376 21.6741L56.8636 22.9201C56.6396 23.0041 56.2476 23.0881 55.8556 23.0881C53.5876 23.0881 53.1536 21.6881 53.1536 20.2181V16.6341H51.8096Z" fill="black"/>
<path d="M45.3005 15.5L45.4685 16.55C45.9585 15.822 46.8405 15.332 47.8625 15.332C49.5005 15.332 50.7185 16.214 50.7185 17.838V22.92H49.3745V18.076C49.3745 17.096 48.6885 16.578 47.6665 16.578C46.4485 16.578 45.6085 17.558 45.5105 18.328V22.92H44.1805V17.334L44.0825 15.5H45.3005Z" fill="black"/>
<path d="M41.9 12V22.92H40.5V12H41.9Z" fill="black"/>
<path d="M163.265 66.2001V61.3141C163.265 60.3201 162.775 59.8581 161.809 59.8581C160.801 59.8581 160.101 60.7961 159.975 61.5941V66.2001H158.631V61.3141C158.631 60.3201 158.141 59.8581 157.175 59.8581C156.167 59.8581 155.453 60.7961 155.327 61.5941V66.2001H153.997V60.6141L153.899 58.7801H155.117L155.285 59.8301C155.761 59.0741 156.545 58.6121 157.427 58.6121C158.589 58.6121 159.387 59.1161 159.709 59.9841C160.241 59.0601 161.151 58.6121 162.033 58.6121C163.643 58.6121 164.609 59.5221 164.609 61.1321V66.2001H163.265Z" fill="black"/>
<path d="M152.415 63.0361H146.955C147.053 64.5481 147.879 65.1921 149.111 65.1921C150.315 65.2201 150.805 64.7441 150.959 64.0161L152.359 64.1841C152.191 65.3601 151.267 66.3681 149.125 66.3681C146.913 66.3681 145.555 65.0661 145.555 62.4901C145.555 59.9141 146.913 58.6121 149.083 58.6121C151.337 58.6121 152.415 60.0121 152.415 62.4761V63.0361ZM149.097 59.7741C147.893 59.7741 147.067 60.4321 146.969 61.9021H150.973C150.945 60.5301 150.329 59.7601 149.097 59.7741Z" fill="black"/>
<path d="M140.342 58.612C141.336 58.612 142.218 59.06 142.694 59.774V55H144.024V64.352L144.122 66.2H142.904L142.736 65.136C142.274 65.892 141.364 66.368 140.342 66.368C138.186 66.368 136.996 64.968 136.996 62.49C136.996 60.012 138.186 58.612 140.342 58.612ZM142.694 63.372V61.608C142.582 60.81 141.756 59.858 140.468 59.858C139.194 59.858 138.382 60.782 138.382 62.49C138.382 64.212 139.194 65.122 140.468 65.122C141.756 65.122 142.582 64.184 142.694 63.372Z" fill="black"/>
<path d="M132.252 65.1641C133.54 65.1641 134.408 64.3801 134.408 62.4901C134.408 60.6001 133.54 59.8161 132.252 59.8161C130.964 59.8161 130.096 60.6001 130.096 62.4901C130.096 64.3801 130.964 65.1641 132.252 65.1641ZM132.252 66.3681C130.096 66.3681 128.752 65.0801 128.752 62.4901C128.752 59.9001 130.096 58.6121 132.252 58.6121C134.408 58.6121 135.752 59.9001 135.752 62.4901C135.752 65.0801 134.408 66.3681 132.252 66.3681Z" fill="black"/>
<path d="M122.338 66.2H121.162L118.516 59.83L117.83 58.024L117.872 62.21V66.2H116.5V55.28H118.012L120.868 62.168L121.75 64.464L122.632 62.168L125.488 55.28H127V66.2H125.628V62.21L125.67 58.024L124.984 59.83L122.338 66.2Z" fill="black"/>
<path d="M284.18 59.62C282.906 59.62 281.996 60.53 281.856 61.37V65.92H280.526V60.334L280.428 58.5H281.646L281.828 59.634C282.248 58.878 283.13 58.332 284.138 58.332C284.516 58.332 284.894 58.388 285.132 58.486L285.006 59.788C284.88 59.718 284.572 59.62 284.18 59.62Z" fill="black"/>
<path d="M278.944 62.756H273.484C273.582 64.268 274.408 64.912 275.64 64.912C276.844 64.94 277.334 64.464 277.488 63.736L278.888 63.904C278.72 65.08 277.796 66.088 275.654 66.088C273.442 66.088 272.084 64.786 272.084 62.21C272.084 59.634 273.442 58.332 275.612 58.332C277.866 58.332 278.944 59.732 278.944 62.196V62.756ZM275.626 59.494C274.422 59.494 273.596 60.152 273.498 61.622H277.502C277.474 60.25 276.858 59.48 275.626 59.494Z" fill="black"/>
<path d="M265.911 59.6341V58.5001H267.255V56.5121L268.585 56.2881V58.5001H270.853V59.6341H268.585V63.1341C268.585 64.5341 269.033 64.8421 269.985 64.8561C270.363 64.8701 270.685 64.7441 270.839 64.6741L270.965 65.9201C270.741 66.0041 270.349 66.0881 269.957 66.0881C267.689 66.0881 267.255 64.6881 267.255 63.2181V59.6341H265.911Z" fill="black"/>
<path d="M263.574 65.92L263.406 64.87C262.916 65.598 262.034 66.088 261.012 66.088C259.374 66.088 258.156 65.206 258.156 63.582V58.5H259.5V63.344C259.5 64.324 260.186 64.842 261.208 64.842C262.426 64.842 263.266 63.862 263.364 63.092V58.5H264.694V64.086L264.792 65.92H263.574Z" fill="black"/>
<path d="M253.244 64.884C254.532 64.884 255.4 64.1 255.4 62.21C255.4 60.32 254.532 59.536 253.244 59.536C251.956 59.536 251.088 60.32 251.088 62.21C251.088 64.1 251.956 64.884 253.244 64.884ZM253.244 66.088C251.088 66.088 249.744 64.8 249.744 62.21C249.744 59.62 251.088 58.332 253.244 58.332C255.4 58.332 256.744 59.62 256.744 62.21C256.744 64.8 255.4 66.088 253.244 66.088Z" fill="black"/>
<path d="M241.9 61.342V65.92H240.5V55H244.868C246.618 55 248.438 55.546 248.438 58.164C248.438 60.208 247.346 60.992 246.044 61.23L248.9 65.92H247.178L244.532 61.342H241.9ZM241.9 60.054H245.008C245.848 60.054 246.982 59.928 246.982 58.164C246.982 56.4 245.848 56.288 245.008 56.288H241.9V60.054Z" fill="black"/>
</g>
<defs>
<filter id="filter0_i_1291_62615" x="136.654" y="100.726" width="8.76709" height="8.16797" filterUnits="userSpaceOnUse" color-interpolation-filters="sRGB">
<feFlood flood-opacity="0" result="BackgroundImageFix"/>
<feBlend mode="normal" in="SourceGraphic" in2="BackgroundImageFix" result="shape"/>
<feColorMatrix in="SourceAlpha" type="matrix" values="0 0 0 0 0 0 0 0 0 0 0 0 0 0 0 0 0 0 127 0" result="hardAlpha"/>
<feOffset dx="2" dy="1"/>
<feGaussianBlur stdDeviation="0.5"/>
<feComposite in2="hardAlpha" operator="arithmetic" k2="-1" k3="1"/>
<feColorMatrix type="matrix" values="0 0 0 0 0 0 0 0 0 0 0 0 0 0 0 0 0 0 0.5 0"/>
<feBlend mode="normal" in2="shape" result="effect1_innerShadow_1291_62615"/>
</filter>
<filter id="filter1_i_1291_62615" x="136.654" y="111.03" width="8.76709" height="8.16797" filterUnits="userSpaceOnUse" color-interpolation-filters="sRGB">
<feFlood flood-opacity="0" result="BackgroundImageFix"/>
<feBlend mode="normal" in="SourceGraphic" in2="BackgroundImageFix" result="shape"/>
<feColorMatrix in="SourceAlpha" type="matrix" values="0 0 0 0 0 0 0 0 0 0 0 0 0 0 0 0 0 0 127 0" result="hardAlpha"/>
<feOffset dx="2" dy="1"/>
<feGaussianBlur stdDeviation="0.5"/>
<feComposite in2="hardAlpha" operator="arithmetic" k2="-1" k3="1"/>
<feColorMatrix type="matrix" values="0 0 0 0 0 0 0 0 0 0 0 0 0 0 0 0 0 0 0.5 0"/>
<feBlend mode="normal" in2="shape" result="effect1_innerShadow_1291_62615"/>
</filter>
<filter id="filter2_i_1291_62615" x="136.654" y="121.334" width="8.76709" height="8.16797" filterUnits="userSpaceOnUse" color-interpolation-filters="sRGB">
<feFlood flood-opacity="0" result="BackgroundImageFix"/>
<feBlend mode="normal" in="SourceGraphic" in2="BackgroundImageFix" result="shape"/>
<feColorMatrix in="SourceAlpha" type="matrix" values="0 0 0 0 0 0 0 0 0 0 0 0 0 0 0 0 0 0 127 0" result="hardAlpha"/>
<feOffset dx="2" dy="1"/>
<feGaussianBlur stdDeviation="0.5"/>
<feComposite in2="hardAlpha" operator="arithmetic" k2="-1" k3="1"/>
<feColorMatrix type="matrix" values="0 0 0 0 0 0 0 0 0 0 0 0 0 0 0 0 0 0 0.5 0"/>
<feBlend mode="normal" in2="shape" result="effect1_innerShadow_1291_62615"/>
</filter>
<filter id="filter3_d_1291_62615" x="1.98242" y="35.3064" width="32.8203" height="50.7059" filterUnits="userSpaceOnUse" color-interpolation-filters="sRGB">
<feFlood flood-opacity="0" result="BackgroundImageFix"/>
<feColorMatrix in="SourceAlpha" type="matrix" values="0 0 0 0 0 0 0 0 0 0 0 0 0 0 0 0 0 0 127 0" result="hardAlpha"/>
<feOffset dy="1"/>
<feColorMatrix type="matrix" values="0 0 0 0 0 0 0 0 0 0 0 0 0 0 0 0 0 0 0.1 0"/>
<feBlend mode="normal" in2="BackgroundImageFix" result="effect1_dropShadow_1291_62615"/>
<feBlend mode="normal" in="SourceGraphic" in2="effect1_dropShadow_1291_62615" result="shape"/>
</filter>
<filter id="filter4_d_1291_62615" x="15.0938" y="65.3806" width="7.7373" height="8.849" filterUnits="userSpaceOnUse" color-interpolation-filters="sRGB">
<feFlood flood-opacity="0" result="BackgroundImageFix"/>
<feColorMatrix in="SourceAlpha" type="matrix" values="0 0 0 0 0 0 0 0 0 0 0 0 0 0 0 0 0 0 127 0" result="hardAlpha"/>
<feOffset dx="1" dy="1"/>
<feComposite in2="hardAlpha" operator="out"/>
<feColorMatrix type="matrix" values="0 0 0 0 0 0 0 0 0 0 0 0 0 0 0 0 0 0 0.4 0"/>
<feBlend mode="normal" in2="BackgroundImageFix" result="effect1_dropShadow_1291_62615"/>
<feBlend mode="normal" in="SourceGraphic" in2="effect1_dropShadow_1291_62615" result="shape"/>
</filter>
<filter id="filter5_d_1291_62615" x="14.9854" y="47.4197" width="7.7373" height="8.849" filterUnits="userSpaceOnUse" color-interpolation-filters="sRGB">
<feFlood flood-opacity="0" result="BackgroundImageFix"/>
<feColorMatrix in="SourceAlpha" type="matrix" values="0 0 0 0 0 0 0 0 0 0 0 0 0 0 0 0 0 0 127 0" result="hardAlpha"/>
<feOffset dx="1" dy="1"/>
<feComposite in2="hardAlpha" operator="out"/>
<feColorMatrix type="matrix" values="0 0 0 0 0 0 0 0 0 0 0 0 0 0 0 0 0 0 0.4 0"/>
<feBlend mode="normal" in2="BackgroundImageFix" result="effect1_dropShadow_1291_62615"/>
<feBlend mode="normal" in="SourceGraphic" in2="effect1_dropShadow_1291_62615" result="shape"/>
</filter>
<filter id="filter6_d_1291_62615" x="4.01758" y="59.5134" width="26.8877" height="30.1412" filterUnits="userSpaceOnUse" color-interpolation-filters="sRGB">
<feFlood flood-opacity="0" result="BackgroundImageFix"/>
<feColorMatrix in="SourceAlpha" type="matrix" values="0 0 0 0 0 0 0 0 0 0 0 0 0 0 0 0 0 0 127 0" result="hardAlpha"/>
<feOffset dx="-1" dy="-2"/>
<feComposite in2="hardAlpha" operator="out"/>
<feColorMatrix type="matrix" values="0 0 0 0 0.8 0 0 0 0 0.8 0 0 0 0 0.8 0 0 0 1 0"/>
<feBlend mode="normal" in2="BackgroundImageFix" result="effect1_dropShadow_1291_62615"/>
<feBlend mode="normal" in="SourceGraphic" in2="effect1_dropShadow_1291_62615" result="shape"/>
</filter>
<filter id="filter7_d_1291_62615" x="49.5898" y="35.0369" width="32.8203" height="50.7058" filterUnits="userSpaceOnUse" color-interpolation-filters="sRGB">
<feFlood flood-opacity="0" result="BackgroundImageFix"/>
<feColorMatrix in="SourceAlpha" type="matrix" values="0 0 0 0 0 0 0 0 0 0 0 0 0 0 0 0 0 0 127 0" result="hardAlpha"/>
<feOffset dy="1"/>
<feColorMatrix type="matrix" values="0 0 0 0 0 0 0 0 0 0 0 0 0 0 0 0 0 0 0.1 0"/>
<feBlend mode="normal" in2="BackgroundImageFix" result="effect1_dropShadow_1291_62615"/>
<feBlend mode="normal" in="SourceGraphic" in2="effect1_dropShadow_1291_62615" result="shape"/>
</filter>
<filter id="filter8_i_1291_62615" x="243.538" y="110.539" width="24.2251" height="25.9973" filterUnits="userSpaceOnUse" color-interpolation-filters="sRGB">
<feFlood flood-opacity="0" result="BackgroundImageFix"/>
<feBlend mode="normal" in="SourceGraphic" in2="BackgroundImageFix" result="shape"/>
<feColorMatrix in="SourceAlpha" type="matrix" values="0 0 0 0 0 0 0 0 0 0 0 0 0 0 0 0 0 0 127 0" result="hardAlpha"/>
<feOffset dx="6" dy="3"/>
<feGaussianBlur stdDeviation="1.5"/>
<feComposite in2="hardAlpha" operator="arithmetic" k2="-1" k3="1"/>
<feColorMatrix type="matrix" values="0 0 0 0 0 0 0 0 0 0 0 0 0 0 0 0 0 0 0.5 0"/>
<feBlend mode="normal" in2="shape" result="effect1_innerShadow_1291_62615"/>
</filter>
<linearGradient id="paint0_linear_1291_62615" x1="5.40386" y1="44.7498" x2="5.40386" y2="84.5123" gradientUnits="userSpaceOnUse">
<stop stop-color="#F4F4F4"/>
<stop offset="1" stop-color="#E3E3E3"/>
</linearGradient>
<linearGradient id="paint1_linear_1291_62615" x1="53.0113" y1="44.4803" x2="53.0113" y2="84.2427" gradientUnits="userSpaceOnUse">
<stop stop-color="white"/>
<stop offset="1" stop-color="#E3E3E3"/>
</linearGradient>
<clipPath id="clip0_1291_62615">
<rect width="319" height="209" fill="white" transform="translate(0.5 12)"/>
</clipPath>
</defs>
</svg>
