<svg width="328" height="193" viewBox="0 0 328 193" fill="none" xmlns="http://www.w3.org/2000/svg">
<g filter="url(#filter0_d_1008_36426)">
<path d="M62.6948 3H8.22295C5.89068 3 4 4.87479 4 7.18747V93.9823C4 96.295 5.89068 98.1698 8.22295 98.1698H62.6948C65.0271 98.1698 66.9177 96.295 66.9177 93.9823V7.18747C66.9177 4.87479 65.0271 3 62.6948 3Z" fill="black"/>
</g>
<path d="M62.6948 3H8.22295C5.89068 3 4 4.87479 4 7.18747V93.9823C4 96.295 5.89068 98.1698 8.22295 98.1698H62.6948C65.0271 98.1698 66.9177 96.295 66.9177 93.9823V7.18747C66.9177 4.87479 65.0271 3 62.6948 3Z" fill="url(#paint0_linear_1008_36426)"/>
<path d="M28.938 60.7876H31.6024V67.666H28.938V60.7876ZM39.5956 60.7876H42.2601V67.666H39.5956V60.7876ZM33.6007 72.1587H37.5973V75.1017C37.5973 75.1017 37.3898 76.1246 35.599 76.1246C33.8082 76.1246 33.6007 75.1017 33.6007 75.1017V72.1587Z" fill="#575757"/>
<g filter="url(#filter1_i_1008_36426)">
<path d="M28.938 60.7876H31.6024V67.666H28.938V60.7876ZM39.5956 60.7876H42.2601V67.666H39.5956V60.7876ZM33.6007 72.1587H37.5973V75.1017C37.5973 75.1017 37.3898 76.1246 35.599 76.1246C33.8082 76.1246 33.6007 75.1017 33.6007 75.1017V72.1587Z" fill="black"/>
</g>
<path d="M28.7227 25.6921H31.3871V32.5705H28.7227V25.6921ZM39.3806 25.6921H42.045V32.5705H39.3806V25.6921ZM33.3855 37.0632H37.3822V40.0062C37.3822 40.0062 37.1747 41.0291 35.3838 41.0291C33.593 41.0291 33.3855 40.0062 33.3855 40.0062V37.0632Z" fill="#575757"/>
<g filter="url(#filter2_i_1008_36426)">
<path d="M28.7227 25.6921H31.3871V32.5705H28.7227V25.6921ZM39.3806 25.6921H42.045V32.5705H39.3806V25.6921ZM33.3855 37.0632H37.3822V40.0062C37.3822 40.0062 37.1747 41.0291 35.3838 41.0291C33.593 41.0291 33.3855 40.0062 33.3855 40.0062V37.0632Z" fill="black"/>
</g>
<path d="M36.626 101.824C36.626 124.597 30.8408 163.735 124.906 161.555C218.97 159.375 228.012 159.375 228.012 159.375" stroke="#2C333B" stroke-width="3.85" stroke-linecap="square"/>
<path d="M10.4326 60.6202C10.4326 57.1217 13.3011 54.2856 16.8271 54.2856H55.3461C58.8777 54.2856 61.7406 57.1262 61.7406 60.6202V102.938C61.7406 106.437 58.8721 109.273 55.3461 109.273H16.8271C13.2955 109.273 10.4326 106.432 10.4326 102.938V60.6202Z" fill="#3D4449"/>
<g filter="url(#filter3_i_1008_36426)">
<path d="M10.4326 60.6202C10.4326 57.1217 13.3011 54.2856 16.8271 54.2856H55.3461C58.8777 54.2856 61.7406 57.1262 61.7406 60.6202V102.938C61.7406 106.437 58.8721 109.273 55.3461 109.273H16.8271C13.2955 109.273 10.4326 106.432 10.4326 102.938V60.6202Z" fill="black"/>
</g>
<path fill-rule="evenodd" clip-rule="evenodd" d="M183.59 155.658L190.584 145.012C191.647 143.395 194.077 142.083 196.018 142.083H309.54C311.478 142.083 314.014 143.321 315.204 144.848L322.652 154.403L324 162.974H183.192L183.59 155.658Z" fill="#48535D"/>
<g filter="url(#filter4_d_1008_36426)">
<path d="M183.192 157.754C183.192 154.86 185.545 152.515 188.465 152.515H313.476C316.388 152.515 321.113 152.515 324 152.515H318.748C321.649 152.515 324 154.857 324 157.754V182.143C324 185.036 321.645 187.382 318.716 187.382H188.476C185.558 187.382 183.192 185.04 183.192 182.143V157.754Z" fill="black"/>
</g>
<path d="M183.192 157.754C183.192 154.86 185.545 152.515 188.465 152.515H313.476C316.388 152.515 321.113 152.515 324 152.515H318.748C321.649 152.515 324 154.857 324 157.754V182.143C324 185.036 321.645 187.382 318.716 187.382H188.476C185.558 187.382 183.192 185.04 183.192 182.143V157.754Z" fill="#2C333B"/>
<path opacity="0.3" d="M213.584 173.777C215.056 173.777 216.25 172.593 216.25 171.133C216.25 169.673 215.056 168.49 213.584 168.49C212.112 168.49 210.918 169.673 210.918 171.133C210.918 172.593 212.112 173.777 213.584 173.777Z" fill="white"/>
<path d="M201.853 173.777C203.325 173.777 204.519 172.593 204.519 171.133C204.519 169.673 203.325 168.49 201.853 168.49C200.381 168.49 199.188 169.673 199.188 171.133C199.188 172.593 200.381 173.777 201.853 173.777Z" fill="white"/>
<path opacity="0.3" d="M225.315 173.777C226.787 173.777 227.981 172.593 227.981 171.133C227.981 169.673 226.787 168.49 225.315 168.49C223.842 168.49 222.648 169.673 222.648 171.133C222.648 172.593 223.842 173.777 225.315 173.777Z" fill="white"/>
<path opacity="0.3" d="M237.044 173.777C238.516 173.777 239.71 172.593 239.71 171.133C239.71 169.673 238.516 168.49 237.044 168.49C235.572 168.49 234.378 169.673 234.378 171.133C234.378 172.593 235.572 173.777 237.044 173.777Z" fill="white"/>
<defs>
<filter id="filter0_d_1008_36426" x="0" y="0" width="70.918" height="103.17" filterUnits="userSpaceOnUse" color-interpolation-filters="sRGB">
<feFlood flood-opacity="0" result="BackgroundImageFix"/>
<feColorMatrix in="SourceAlpha" type="matrix" values="0 0 0 0 0 0 0 0 0 0 0 0 0 0 0 0 0 0 127 0" result="hardAlpha"/>
<feOffset dy="1"/>
<feGaussianBlur stdDeviation="2"/>
<feColorMatrix type="matrix" values="0 0 0 0 0 0 0 0 0 0 0 0 0 0 0 0 0 0 0.1 0"/>
<feBlend mode="normal" in2="BackgroundImageFix" result="effect1_dropShadow_1008_36426"/>
<feBlend mode="normal" in="SourceGraphic" in2="effect1_dropShadow_1008_36426" result="shape"/>
</filter>
<filter id="filter1_i_1008_36426" x="28.938" y="60.7876" width="14.3223" height="17.3369" filterUnits="userSpaceOnUse" color-interpolation-filters="sRGB">
<feFlood flood-opacity="0" result="BackgroundImageFix"/>
<feBlend mode="normal" in="SourceGraphic" in2="BackgroundImageFix" result="shape"/>
<feColorMatrix in="SourceAlpha" type="matrix" values="0 0 0 0 0 0 0 0 0 0 0 0 0 0 0 0 0 0 127 0" result="hardAlpha"/>
<feOffset dx="1" dy="2"/>
<feGaussianBlur stdDeviation="2"/>
<feComposite in2="hardAlpha" operator="arithmetic" k2="-1" k3="1"/>
<feColorMatrix type="matrix" values="0 0 0 0 0 0 0 0 0 0 0 0 0 0 0 0 0 0 0.4 0"/>
<feBlend mode="normal" in2="shape" result="effect1_innerShadow_1008_36426"/>
</filter>
<filter id="filter2_i_1008_36426" x="28.7227" y="25.6921" width="14.3223" height="17.3369" filterUnits="userSpaceOnUse" color-interpolation-filters="sRGB">
<feFlood flood-opacity="0" result="BackgroundImageFix"/>
<feBlend mode="normal" in="SourceGraphic" in2="BackgroundImageFix" result="shape"/>
<feColorMatrix in="SourceAlpha" type="matrix" values="0 0 0 0 0 0 0 0 0 0 0 0 0 0 0 0 0 0 127 0" result="hardAlpha"/>
<feOffset dx="1" dy="2"/>
<feGaussianBlur stdDeviation="2"/>
<feComposite in2="hardAlpha" operator="arithmetic" k2="-1" k3="1"/>
<feColorMatrix type="matrix" values="0 0 0 0 0 0 0 0 0 0 0 0 0 0 0 0 0 0 0.4 0"/>
<feBlend mode="normal" in2="shape" result="effect1_innerShadow_1008_36426"/>
</filter>
<filter id="filter3_i_1008_36426" x="8.43262" y="50.2856" width="53.3081" height="58.9871" filterUnits="userSpaceOnUse" color-interpolation-filters="sRGB">
<feFlood flood-opacity="0" result="BackgroundImageFix"/>
<feBlend mode="normal" in="SourceGraphic" in2="BackgroundImageFix" result="shape"/>
<feColorMatrix in="SourceAlpha" type="matrix" values="0 0 0 0 0 0 0 0 0 0 0 0 0 0 0 0 0 0 127 0" result="hardAlpha"/>
<feOffset dx="-2" dy="-4"/>
<feGaussianBlur stdDeviation="2"/>
<feComposite in2="hardAlpha" operator="arithmetic" k2="-1" k3="1"/>
<feColorMatrix type="matrix" values="0 0 0 0 0.172549 0 0 0 0 0.2 0 0 0 0 0.231373 0 0 0 1 0"/>
<feBlend mode="normal" in2="shape" result="effect1_innerShadow_1008_36426"/>
</filter>
<filter id="filter4_d_1008_36426" x="179.192" y="149.515" width="148.808" height="42.8669" filterUnits="userSpaceOnUse" color-interpolation-filters="sRGB">
<feFlood flood-opacity="0" result="BackgroundImageFix"/>
<feColorMatrix in="SourceAlpha" type="matrix" values="0 0 0 0 0 0 0 0 0 0 0 0 0 0 0 0 0 0 127 0" result="hardAlpha"/>
<feOffset dy="1"/>
<feGaussianBlur stdDeviation="2"/>
<feColorMatrix type="matrix" values="0 0 0 0 0 0 0 0 0 0 0 0 0 0 0 0 0 0 0.3 0"/>
<feBlend mode="normal" in2="BackgroundImageFix" result="effect1_dropShadow_1008_36426"/>
<feBlend mode="normal" in="SourceGraphic" in2="effect1_dropShadow_1008_36426" result="shape"/>
</filter>
<linearGradient id="paint0_linear_1008_36426" x1="35.4589" y1="20.4752" x2="35.4589" y2="98.1698" gradientUnits="userSpaceOnUse">
<stop stop-color="white"/>
<stop offset="1" stop-color="#E3E3E3"/>
</linearGradient>
</defs>
</svg>
