<svg width="316" height="99" viewBox="0 0 316 99" fill="none" xmlns="http://www.w3.org/2000/svg">
<g clip-path="url(#clip0_1008_36509)">
<path fill-rule="evenodd" clip-rule="evenodd" d="M7.92688 30.0364L22.9202 7.26472C25.1983 3.80481 30.4067 1 34.5691 1H277.927C282.083 1 287.519 3.64746 290.071 6.91408L306.036 27.3528L308.927 45.6874H7.07373L7.92688 30.0364Z" fill="#48535D"/>
<g filter="url(#filter0_d_1008_36509)">
<path d="M7.07373 34.5194C7.07373 28.3303 12.1175 23.313 18.3762 23.313H286.365C292.607 23.313 302.737 23.313 308.927 23.313H297.668C303.886 23.313 308.927 28.3225 308.927 34.5194V86.6909C308.927 92.88 303.877 97.8973 297.599 97.8973H18.4013C12.1452 97.8973 7.07373 92.8878 7.07373 86.6909V34.5194Z" fill="black"/>
</g>
<path d="M7.07373 34.5194C7.07373 28.3303 12.1175 23.313 18.3762 23.313H286.365C292.607 23.313 302.737 23.313 308.927 23.313H297.668C303.886 23.313 308.927 28.3225 308.927 34.5194V86.6909C308.927 92.88 303.877 97.8973 297.599 97.8973H18.4013C12.1452 97.8973 7.07373 92.8878 7.07373 86.6909V34.5194Z" fill="#2C333B"/>
<path opacity="0.3" d="M73.3561 63.8963C76.5011 63.8963 79.0506 61.5341 79.0506 58.6203C79.0506 55.7064 76.5011 53.3442 73.3561 53.3442C70.2111 53.3442 67.6616 55.7064 67.6616 58.6203C67.6616 61.5341 70.2111 63.8963 73.3561 63.8963Z" fill="white"/>
<path d="M48.2992 63.8963C51.4434 63.8963 53.9924 61.5341 53.9924 58.6203C53.9924 55.7064 51.4434 53.3442 48.2992 53.3442C45.1549 53.3442 42.606 55.7064 42.606 58.6203C42.606 61.5341 45.1549 63.8963 48.2992 63.8963Z" fill="#6B7076"/>
<path opacity="0.3" d="M98.4131 63.8963C101.559 63.8963 104.109 61.5341 104.109 58.6203C104.109 55.7064 101.559 53.3442 98.4131 53.3442C95.2674 53.3442 92.7173 55.7064 92.7173 58.6203C92.7173 61.5341 95.2674 63.8963 98.4131 63.8963Z" fill="white"/>
<path opacity="0.3" d="M123.467 63.8963C126.612 63.8963 129.162 61.5341 129.162 58.6203C129.162 55.7064 126.612 53.3442 123.467 53.3442C120.322 53.3442 117.773 55.7064 117.773 58.6203C117.773 61.5341 120.322 63.8963 123.467 63.8963Z" fill="white"/>
</g>
<defs>
<filter id="filter0_d_1008_36509" x="3.07373" y="20.313" width="309.853" height="82.5842" filterUnits="userSpaceOnUse" color-interpolation-filters="sRGB">
<feFlood flood-opacity="0" result="BackgroundImageFix"/>
<feColorMatrix in="SourceAlpha" type="matrix" values="0 0 0 0 0 0 0 0 0 0 0 0 0 0 0 0 0 0 127 0" result="hardAlpha"/>
<feOffset dy="1"/>
<feGaussianBlur stdDeviation="2"/>
<feColorMatrix type="matrix" values="0 0 0 0 0 0 0 0 0 0 0 0 0 0 0 0 0 0 0.3 0"/>
<feBlend mode="normal" in2="BackgroundImageFix" result="effect1_dropShadow_1008_36509"/>
<feBlend mode="normal" in="SourceGraphic" in2="effect1_dropShadow_1008_36509" result="shape"/>
</filter>
<clipPath id="clip0_1008_36509">
<rect width="315.853" height="98.8972" fill="white" transform="translate(0.0737305)"/>
</clipPath>
</defs>
</svg>
