<svg width="69" height="69" viewBox="0 0 69 69" fill="none" xmlns="http://www.w3.org/2000/svg">
<path fill-rule="evenodd" clip-rule="evenodd" d="M59.0854 52.1639C61.8184 47.4787 63.25 42.1428 63.25 36.4165C63.25 30.6902 61.6883 25.3543 59.0854 20.6691C59.0854 20.5389 58.9552 20.5389 58.9552 20.5389C53.4892 11.1686 43.338 4.7915 31.625 4.7915C20.0422 4.7915 9.7608 11.1686 4.29475 20.5389L4.16461 20.6691C1.43158 25.3543 0 30.6902 0 36.4165C0 42.1428 1.56173 47.4787 4.16461 52.1639C4.16461 52.2941 4.29475 52.2941 4.29475 52.2941C9.7608 61.6644 19.912 68.0415 31.625 68.0415C43.2078 68.0415 53.4892 61.6644 58.9552 52.2941C58.9552 52.2941 58.9552 52.1639 59.0854 52.1639ZM2.2124 37.4577H13.0144C13.1445 42.1429 13.7952 46.5678 14.9665 50.6022H5.85644C3.64399 46.6979 2.34255 42.273 2.2124 37.4577ZM5.85644 22.2308H14.9665C13.7952 26.2653 13.1445 30.6902 13.0144 35.3754H2.2124C2.34255 30.56 3.64399 26.1351 5.85644 22.2308ZM61.0376 35.3754H50.2357C50.1055 30.6902 49.4548 26.2653 48.2835 22.2308H57.3936C59.6061 26.1351 60.9075 30.56 61.0376 35.3754ZM48.0232 35.3754H32.6662V22.2308H45.9408C47.2423 26.1351 47.893 30.6902 48.0232 35.3754ZM32.6662 20.0184V7.13413C36.5705 7.65471 40.2145 10.5179 42.9475 15.4633C43.7284 16.8949 44.5093 18.4567 45.16 20.0184H32.6662ZM30.5838 7.13413V20.0184H18.0899C18.7407 18.3265 19.3914 16.8949 20.3024 15.4633C23.0354 10.3877 26.6795 7.52456 30.5838 7.13413ZM30.5836 22.2308V35.3754H15.2266C15.3568 30.6902 16.0075 26.2653 17.3089 22.2308H30.5836ZM15.2266 37.4577H30.5836V50.6022H17.3089C16.0075 46.6979 15.3568 42.1429 15.2266 37.4577ZM30.5838 52.8146V65.6989C26.6795 65.1783 23.0354 62.3152 20.3024 57.3697C19.5215 55.9381 18.7407 54.3764 18.0899 52.8146H30.5838ZM32.6662 65.6989V52.8146H45.16C44.5093 54.5065 43.8585 55.9381 42.9475 57.3697C40.2145 62.4453 36.5705 65.3085 32.6662 65.6989ZM32.6662 50.6022V37.4577H48.0232C47.893 42.1429 47.2423 46.5678 45.9408 50.6022H32.6662ZM50.2357 37.4577H61.0376C60.9075 42.273 59.6061 46.6979 57.3936 50.6022H48.2835C49.4548 46.5678 50.1055 42.1429 50.2357 37.4577ZM56.092 20.0184H47.6326C46.8518 17.9361 46.0709 16.1141 45.0298 14.2921C43.5982 11.8193 42.0365 9.73702 40.2144 8.30543C46.7216 10.2576 52.3178 14.4222 56.092 20.0184ZM23.1657 8.17529C21.3437 9.73702 19.7819 11.6892 18.3503 14.1619C17.3092 15.8538 16.5283 17.8059 15.7475 19.8883H7.28811C10.9321 14.4222 16.5283 10.2576 23.1657 8.17529ZM7.15802 52.8146H15.6174C16.3982 54.897 17.1791 56.719 18.2203 58.541C19.6518 61.0137 21.2136 63.096 23.0356 64.5276C16.5284 62.5755 10.9322 58.4108 7.15802 52.8146ZM40.0844 64.6578C41.9064 63.096 43.4681 61.1439 44.8997 58.6711C45.9408 56.9793 46.7217 55.0271 47.5026 52.9448H55.9619C52.3179 58.4108 46.7217 62.5754 40.0844 64.6578Z" fill="#A7A7A7"/>
<path fill-rule="evenodd" clip-rule="evenodd" d="M59.0854 52.1639C61.8184 47.4787 63.25 42.1428 63.25 36.4165C63.25 30.6902 61.6883 25.3543 59.0854 20.6691C59.0854 20.5389 58.9552 20.5389 58.9552 20.5389C53.4892 11.1686 43.338 4.7915 31.625 4.7915C20.0422 4.7915 9.7608 11.1686 4.29475 20.5389L4.16461 20.6691C1.43158 25.3543 0 30.6902 0 36.4165C0 42.1428 1.56173 47.4787 4.16461 52.1639C4.16461 52.2941 4.29475 52.2941 4.29475 52.2941C9.7608 61.6644 19.912 68.0415 31.625 68.0415C43.2078 68.0415 53.4892 61.6644 58.9552 52.2941C58.9552 52.2941 58.9552 52.1639 59.0854 52.1639ZM2.2124 37.4577H13.0144C13.1445 42.1429 13.7952 46.5678 14.9665 50.6022H5.85644C3.64399 46.6979 2.34255 42.273 2.2124 37.4577ZM5.85644 22.2308H14.9665C13.7952 26.2653 13.1445 30.6902 13.0144 35.3754H2.2124C2.34255 30.56 3.64399 26.1351 5.85644 22.2308ZM61.0376 35.3754H50.2357C50.1055 30.6902 49.4548 26.2653 48.2835 22.2308H57.3936C59.6061 26.1351 60.9075 30.56 61.0376 35.3754ZM48.0232 35.3754H32.6662V22.2308H45.9408C47.2423 26.1351 47.893 30.6902 48.0232 35.3754ZM32.6662 20.0184V7.13413C36.5705 7.65471 40.2145 10.5179 42.9475 15.4633C43.7284 16.8949 44.5093 18.4567 45.16 20.0184H32.6662ZM30.5838 7.13413V20.0184H18.0899C18.7407 18.3265 19.3914 16.8949 20.3024 15.4633C23.0354 10.3877 26.6795 7.52456 30.5838 7.13413ZM30.5836 22.2308V35.3754H15.2266C15.3568 30.6902 16.0075 26.2653 17.3089 22.2308H30.5836ZM15.2266 37.4577H30.5836V50.6022H17.3089C16.0075 46.6979 15.3568 42.1429 15.2266 37.4577ZM30.5838 52.8146V65.6989C26.6795 65.1783 23.0354 62.3152 20.3024 57.3697C19.5215 55.9381 18.7407 54.3764 18.0899 52.8146H30.5838ZM32.6662 65.6989V52.8146H45.16C44.5093 54.5065 43.8585 55.9381 42.9475 57.3697C40.2145 62.4453 36.5705 65.3085 32.6662 65.6989ZM32.6662 50.6022V37.4577H48.0232C47.893 42.1429 47.2423 46.5678 45.9408 50.6022H32.6662ZM50.2357 37.4577H61.0376C60.9075 42.273 59.6061 46.6979 57.3936 50.6022H48.2835C49.4548 46.5678 50.1055 42.1429 50.2357 37.4577ZM56.092 20.0184H47.6326C46.8518 17.9361 46.0709 16.1141 45.0298 14.2921C43.5982 11.8193 42.0365 9.73702 40.2144 8.30543C46.7216 10.2576 52.3178 14.4222 56.092 20.0184ZM23.1657 8.17529C21.3437 9.73702 19.7819 11.6892 18.3503 14.1619C17.3092 15.8538 16.5283 17.8059 15.7475 19.8883H7.28811C10.9321 14.4222 16.5283 10.2576 23.1657 8.17529ZM7.15802 52.8146H15.6174C16.3982 54.897 17.1791 56.719 18.2203 58.541C19.6518 61.0137 21.2136 63.096 23.0356 64.5276C16.5284 62.5755 10.9322 58.4108 7.15802 52.8146ZM40.0844 64.6578C41.9064 63.096 43.4681 61.1439 44.8997 58.6711C45.9408 56.9793 46.7217 55.0271 47.5026 52.9448H55.9619C52.3179 58.4108 46.7217 62.5754 40.0844 64.6578Z" fill="black" fill-opacity="0.2"/>
<circle cx="54.1457" cy="14.8542" r="14.8542" fill="#EA5B0A"/>
<path d="M49.1682 8.91819L60.8957 20.6457" stroke="#F6F6F6" stroke-width="1.6" stroke-linecap="round"/>
<path d="M60.8957 8.91819L49.1682 20.6457" stroke="#F6F6F6" stroke-width="1.6" stroke-linecap="round"/>
</svg>
